<?xml version="1.0" encoding="UTF-8" standalone="no"?>
<svg
   xmlns:dc="http://purl.org/dc/elements/1.1/"
   xmlns:cc="http://creativecommons.org/ns#"
   xmlns:rdf="http://www.w3.org/1999/02/22-rdf-syntax-ns#"
   xmlns:svg="http://www.w3.org/2000/svg"
   xmlns="http://www.w3.org/2000/svg"
   xmlns:xlink="http://www.w3.org/1999/xlink"
   xmlns:sodipodi="http://sodipodi.sourceforge.net/DTD/sodipodi-0.dtd"
   xmlns:inkscape="http://www.inkscape.org/namespaces/inkscape"
   id="svg8"
   version="1.1"
   viewBox="0 0 210 297"
   height="297mm"
   width="210mm"
   sodipodi:docname="drawing.svg"
   inkscape:version="0.92.5 (2060ec1f9f, 2020-04-08)">
  <sodipodi:namedview
     pagecolor="#ffffff"
     bordercolor="#666666"
     borderopacity="1"
     objecttolerance="10"
     gridtolerance="10"
     guidetolerance="10"
     inkscape:pageopacity="0"
     inkscape:pageshadow="2"
     inkscape:window-width="100"
     inkscape:window-height="709"
     id="namedview159"
     showgrid="false"
     inkscape:zoom="0.2102413"
     inkscape:cx="1157.8807"
     inkscape:cy="561.25984"
     inkscape:window-x="0"
     inkscape:window-y="27"
     inkscape:window-maximized="0"
     inkscape:current-layer="svg8" />
	<title></title>
  <defs
     id="defs2" />
 <metadata
     id="metadata5">
    <rdf:RDF>
      <cc:Work
         rdf:about="">
        <dc:format>image/svg+xml</dc:format>
        <dc:type
           rdf:resource="http://purl.org/dc/dcmitype/StillImage" />
      </cc:Work>
    </rdf:RDF>
  </metadata>
  <g
     id="layer1">
    <path
       id="path3721"
       d="m 39.309524,106.5 c 0,4.03174 0,8.06349 0,12.09524 0,1.25992 -0.114067,2.52501 0,3.77976 0.138768,1.52646 0.617183,3.00925 0.755951,4.53571 0.114067,1.25475 -0.125367,2.5261 0,3.77977 0.12785,1.27849 0.614064,2.50274 0.755952,3.77976 0.11131,1.00177 0,2.01587 0,3.02381 0,1.76389 0,3.52777 0,5.29166 0,2.01588 0,4.03175 0,6.04762 0,0.34045 -0.11503,2.0378 0,2.26786 0.159369,0.31874 0.596585,0.43721 0.755954,0.75595 0.112689,0.22538 -0.112691,0.53057 0,0.75595 0.159369,0.31874 0.596583,0.43722 0.755952,0.75596 0.112691,0.22538 -0.112692,0.53057 0,0.75595 0.318738,0.63747 1.193167,0.87443 1.511906,1.5119 0.112688,0.22539 -0.112692,0.53057 0,0.75595 0.159366,0.31874 0.596582,0.43722 0.755951,0.75596 0.22538,0.45076 -0.225382,1.06114 0,1.5119 0.159369,0.31874 0.596583,0.43722 0.755952,0.75596 0.112691,0.22538 -0.178178,0.57777 0,0.75595 0.178181,0.17818 0.503968,0 0.755952,0 0.50397,0 1.079756,0.25929 1.511905,0 0.916726,-0.55004 1.511906,-1.51191 2.267858,-2.26786 1.007935,-1.00794 2.133346,-1.91073 3.023809,-3.02381 2.988903,-3.73613 3.421232,-5.74189 6.047618,-9.82738 2.344346,-3.64676 5.09183,-7.01889 7.559524,-10.58333 2.068605,-2.98799 3.910105,-6.13235 6.047619,-9.07143 0.949007,-1.30489 2.098537,-2.45795 3.023811,-3.77976 0.842592,-1.20371 1.45283,-2.55723 2.267855,-3.77977 0.698878,-1.04831 1.600102,-1.9554 2.267858,-3.0238 0.597259,-0.95562 1.007938,-2.01588 1.511905,-3.02381 0.251984,-0.50397 0.417881,-1.06115 0.755952,-1.51191 0.427633,-0.57017 1.084273,-0.94173 1.511906,-1.51191 0.338071,-0.45076 0.577771,-0.97736 0.755952,-1.5119 0.07968,-0.23905 -0.178181,-0.57777 0,-0.75595 0.178181,-0.17818 0.530571,0.11269 0.755951,0 0.637477,-0.31874 0.87443,-1.19317 1.511906,-1.51191 0.789125,-0.39456 0.722778,0.39457 1.511903,0 0.318739,-0.15937 0.399595,-0.75595 0.755955,-0.75595 0.356359,0 0.503967,0.50397 0.755951,0.75595 0.755952,0.75596 1.870811,1.27525 2.267858,2.26786 0.661741,1.65436 0.485018,3.53059 0.755951,5.29167 0.233066,1.51493 0.503968,3.02381 0.755952,4.53571 0.544875,3.26924 0.967033,6.55814 1.511906,9.82738 0.211233,1.26739 0.639625,2.50017 0.755951,3.77977 0.136883,1.50569 -0.136879,3.03001 0,4.53571 0.116327,1.27959 0.628103,2.50127 0.755955,3.77976 0.125365,1.25367 -0.125368,2.52609 0,3.77976 0.127849,1.2785 0.628102,2.50127 0.755951,3.77977 0,11.25517 -0.305575,-2.75019 0.755952,6.80357 0.139136,1.25221 -0.156274,2.52957 0,3.77976 0.09884,0.79069 0.503968,1.5119 0.755952,2.26786 0.251986,0.75595 0.50397,1.5119 0.755954,2.26785 0.503966,1.51191 0.920026,3.05602 1.511906,4.53572 0.20926,0.52315 0.61929,0.96527 0.75595,1.5119 0.12223,0.48892 -0.22538,1.06114 0,1.5119 0.31874,0.63748 1.08427,0.94174 1.5119,1.51191 0.33808,0.45076 0.44341,1.04308 0.75596,1.5119 0.19767,0.29651 0.55828,0.45945 0.75595,0.75596 0.31255,0.46882 0.44341,1.04308 0.75595,1.5119 0.45877,0.68816 1.93284,1.59783 2.26786,2.26786 0.52136,1.04273 -0.9155,0.67618 0.75595,1.5119 0.22538,0.11269 0.50397,0 0.75595,0 0.50397,0 1.00794,0 1.51191,0 0.25198,0 0.50397,0 0.75595,0 0.25198,0 0.53057,0.11269 0.75595,0 0.31874,-0.15936 0.50397,-0.50397 0.75596,-0.75595 0.25198,-0.25198 0.55827,-0.45944 0.75595,-0.75595 3.41903,-5.12854 2.27868,-3.83391 3.77976,-11.33929 1.90725,-9.53625 1.5119,-4.98978 1.5119,-13.60714 0,-6.80357 0,-13.60714 0,-20.41071 0,-0.27762 -0.0304,-2.99339 0,-3.02381 0.17819,-0.17818 0.50397,0 0.75596,0 0.50397,0 1.00793,0 1.5119,0 1.14968,0 0.97644,0.25198 0.75595,-1.51191 -0.47301,-3.78412 -1.03445,-6.12716 -2.26785,-9.82738 -0.68083,-2.04247 -1.62569,-3.99267 -2.26786,-6.04762 -0.61979,-1.98332 -0.92559,-4.05414 -1.5119,-6.04762 -0.67453,-2.29339 -1.55483,-4.52185 -2.26786,-6.803568 -1.43418,-4.589357 -2.57488,-9.195271 -4.53572,-13.607143 -0.70418,-1.584399 -1.8656,-3.901813 -3.02381,-5.291666 -0.6844,-0.821288 -1.5119,-1.511904 -2.26785,-2.267858 -1.00794,-1.007935 -1.79255,-2.305571 -3.02381,-3.023809 -1.859677,-1.08481 -3.982151,-1.660366 -6.047621,-2.267857 -2.228779,-0.655521 -4.535715,-1.007936 -6.803573,-1.511904 -3.854362,-0.856525 -8.099713,-1.982462 -12.095236,-2.267857 -1.759408,-0.125672 -3.527777,0 -5.291667,0 -1.763889,0 -3.527777,0 -5.291666,0 -5.196901,0 -5.87144,-0.331407 -10.583334,0.755952 -3.168303,0.731146 -6.727232,1.990426 -9.827381,3.023809 -1.511903,0.50397 -3.084875,0.852432 -4.535715,1.511905 -1.337606,0.608005 -2.519841,1.511906 -3.779761,2.267858 -4.19962,2.519773 -8.435371,5.021596 -12.095238,8.315476 -6.448732,5.80386 -1.453397,1.55303 -6.047619,6.803572 -7.278854,7.278852 0.06948,-0.464822 -4.535714,5.291667 -0.890464,1.113078 -2.133346,1.910728 -3.023809,3.023809 -0.567562,0.709451 -0.944344,1.558404 -1.5119052,2.267854 -0.4452318,0.55654 -1.0842736,0.94173 -1.5119048,1.51191 -0.3380722,0.45076 -0.503968,1.00793 -0.7559522,1.5119 -0.2519841,0.50397 -0.6192948,0.96528 -0.7559524,1.51191 -0.1222303,0.48892 0.1222301,1.02298 0,1.5119 -0.1366575,0.54663 -0.7559524,0.94845 -0.7559524,1.5119 0,0.56346 0.6192949,0.96528 0.7559524,1.51191 0.2444605,0.97784 -0.1976726,2.03545 0,3.02381 0.3588832,1.79442 1.0942508,3.12739 2.267857,4.53571 1.2770606,1.53248 4.6502796,4.43177 6.0476186,5.29167 1.91948,1.18122 4.031746,2.01588 6.047619,3.02381 9.545363,4.77268 5.865506,3.3782 16.630952,6.80357 0.328509,0.10453 11.297446,3.42121 12.851191,3.77976 1.493506,0.34466 3.056964,0.35266 4.535714,0.75596 1.309161,0.35704 2.480014,1.12198 3.779761,1.5119 1.230686,0.36921 2.560826,0.34964 3.779764,0.75595 1.069078,0.35636 1.988018,1.068 3.023809,1.51191 3.955314,1.69513 0.550508,0.0917 4.535715,0.75595 0.786,0.131 1.481854,0.62495 2.267855,0.75595 1.023995,0.17067 4.039899,0 5.291666,0 2.015874,0 4.031747,0 6.047621,0 0.755952,0 1.519502,0.10691 2.267857,0 2.05703,-0.29386 4.019185,-1.06114 6.047619,-1.5119 1.254275,-0.27873 2.525485,-0.47723 3.77976,-0.75596 1.014217,-0.22538 1.991207,-0.64121 3.02381,-0.75595 1.25221,-0.13913 2.52502,0.11407 3.77976,0 1.52647,-0.13877 3.00825,-0.62866 4.53572,-0.75595 1.50668,-0.12556 3.02381,0 4.53571,0 1.25992,0 2.51984,0 3.77976,0 1.51191,0 3.03132,-0.15044 4.53572,0 1.0338,0.10338 1.99287,0.62709 3.02381,0.75595 1.00015,0.12502 2.02958,-0.1657 3.02381,0 1.11157,0.18527 1.93054,1.23859 3.02381,1.51191 0.48892,0.12223 1.03379,-0.15937 1.5119,0 0.33807,0.11269 0.43722,0.59658 0.75595,0.75595 0.22538,0.11269 0.53057,-0.11269 0.75595,0 0.31874,0.15937 0.43722,0.59658 0.75596,0.75595 0.19545,0.0977 3.99989,0 4.53571,0"
       style="fill:none;stroke:#000000;stroke-width:0.26458332px;stroke-linecap:butt;stroke-linejoin:miter;stroke-opacity:1" />
    <path
       id="path3723"
       d="M 123.97619,209.30952 61.988093,244.83928"
       style="fill:none;stroke:#000000;stroke-width:0.26458332px;stroke-linecap:butt;stroke-linejoin:miter;stroke-opacity:1" />
    <use
       transform="translate(-27.676944,-111.46577)"
       height="100%"
       width="100%"
       y="0"
       x="0"
       xlink:href="#path3723"
       id="use3725" />
    <use
       transform="translate(-11.881691,-90.278975)"
       height="100%"
       width="100%"
       y="0"
       x="0"
       xlink:href="#path3723"
       id="use3727" />
    <use
       transform="translate(-16.89427,-77.774285)"
       height="100%"
       width="100%"
       y="0"
       x="0"
       xlink:href="#path3723"
       id="use3729" />
    <use
       transform="translate(-3.3247025,-90.035644)"
       height="100%"
       width="100%"
       y="0"
       x="0"
       xlink:href="#path3723"
       id="use3731" />
    <use
       transform="translate(-43.036848,-82.884109)"
       height="100%"
       width="100%"
       y="0"
       x="0"
       xlink:href="#path3723"
       id="use3733" />
    <use
       transform="translate(-42.828625,-71.2196)"
       height="100%"
       width="100%"
       y="0"
       x="0"
       xlink:href="#path3723"
       id="use3735" />
    <use
       transform="translate(-39.994591,-52.923429)"
       height="100%"
       width="100%"
       y="0"
       x="0"
       xlink:href="#path3723"
       id="use3737" />
    <use
       transform="translate(-14.474202,-42.835225)"
       height="100%"
       width="100%"
       y="0"
       x="0"
       xlink:href="#path3723"
       id="use3739" />
    <use
       transform="translate(-15.466257,-43.167903)"
       height="100%"
       width="100%"
       y="0"
       x="0"
       xlink:href="#path3723"
       id="use3741" />
    <use
       transform="translate(-30.744834,-35.982049)"
       height="100%"
       width="100%"
       y="0"
       x="0"
       xlink:href="#path3723"
       id="use3743" />
    <use
       transform="translate(-10.017199,-28.102037)"
       height="100%"
       width="100%"
       y="0"
       x="0"
       xlink:href="#path3723"
       id="use3745" />
    <use
       transform="translate(-15.912092,-34.909555)"
       height="100%"
       width="100%"
       y="0"
       x="0"
       xlink:href="#path3723"
       id="use3747" />
    <use
       transform="translate(-14.288166,-49.266132)"
       height="100%"
       width="100%"
       y="0"
       x="0"
       xlink:href="#path3723"
       id="use3749" />
    <use
       transform="translate(17.451929,-48.481122)"
       height="100%"
       width="100%"
       y="0"
       x="0"
       xlink:href="#path3723"
       id="use3751" />
    <use
       transform="translate(-27.941026,-39.354548)"
       height="100%"
       width="100%"
       y="0"
       x="0"
       xlink:href="#path3723"
       id="use3753" />
    <use
       transform="translate(8.1507309,-21.49403)"
       height="100%"
       width="100%"
       y="0"
       x="0"
       xlink:href="#path3723"
       id="use3755" />
    <use
       transform="translate(-15.942085,-17.736186)"
       height="100%"
       width="100%"
       y="0"
       x="0"
       xlink:href="#path3723"
       id="use3757" />
    <use
       transform="translate(24.683359,-42.008558)"
       height="100%"
       width="100%"
       y="0"
       x="0"
       xlink:href="#path3723"
       id="use3759" />
    <use
       transform="translate(24.056618,-15.372703)"
       height="100%"
       width="100%"
       y="0"
       x="0"
       xlink:href="#path3723"
       id="use3761" />
    <use
       transform="translate(12.164257,-27.259441)"
       height="100%"
       width="100%"
       y="0"
       x="0"
       xlink:href="#path3723"
       id="use3763" />
    <use
       transform="translate(18.913026,-39.241453)"
       height="100%"
       width="100%"
       y="0"
       x="0"
       xlink:href="#path3723"
       id="use3765" />
    <use
       transform="translate(-1.9237969,-19.543181)"
       height="100%"
       width="100%"
       y="0"
       x="0"
       xlink:href="#path3723"
       id="use3767" />
    <use
       transform="translate(4.3212193,-27.171846)"
       height="100%"
       width="100%"
       y="0"
       x="0"
       xlink:href="#path3723"
       id="use3769" />
    <use
       transform="translate(16.205147,-34.855013)"
       height="100%"
       width="100%"
       y="0"
       x="0"
       xlink:href="#path3723"
       id="use3771" />
    <use
       transform="translate(25.653312,-39.059109)"
       height="100%"
       width="100%"
       y="0"
       x="0"
       xlink:href="#path3723"
       id="use3773" />
    <use
       transform="translate(1.7625386,-27.623991)"
       height="100%"
       width="100%"
       y="0"
       x="0"
       xlink:href="#path3723"
       id="use3775" />
    <use
       transform="translate(41.534551,-43.619786)"
       height="100%"
       width="100%"
       y="0"
       x="0"
       xlink:href="#path3723"
       id="use3777" />
    <use
       transform="translate(15.617605,-18.942743)"
       height="100%"
       width="100%"
       y="0"
       x="0"
       xlink:href="#path3723"
       id="use3779" />
    <use
       transform="translate(44.595743,-24.318154)"
       height="100%"
       width="100%"
       y="0"
       x="0"
       xlink:href="#path3723"
       id="use3781" />
    <use
       transform="translate(34.441897,-19.636251)"
       height="100%"
       width="100%"
       y="0"
       x="0"
       xlink:href="#path3723"
       id="use3783" />
    <use
       transform="translate(55.785042,-32.768982)"
       height="100%"
       width="100%"
       y="0"
       x="0"
       xlink:href="#path3723"
       id="use3785" />
    <use
       transform="translate(49.222016,-23.552144)"
       height="100%"
       width="100%"
       y="0"
       x="0"
       xlink:href="#path3723"
       id="use3787" />
    <use
       transform="translate(25.004989,-27.830442)"
       height="100%"
       width="100%"
       y="0"
       x="0"
       xlink:href="#path3723"
       id="use3789" />
    <use
       transform="translate(13.568375,-25.299261)"
       height="100%"
       width="100%"
       y="0"
       x="0"
       xlink:href="#path3723"
       id="use3791" />
    <use
       transform="translate(48.178778,-15.804852)"
       height="100%"
       width="100%"
       y="0"
       x="0"
       xlink:href="#path3723"
       id="use3793" />
    <use
       transform="translate(23.797942,-5.4544326)"
       height="100%"
       width="100%"
       y="0"
       x="0"
       xlink:href="#path3723"
       id="use3795" />
    <use
       transform="translate(45.570525,-21.670859)"
       height="100%"
       width="100%"
       y="0"
       x="0"
       xlink:href="#path3723"
       id="use3797" />
    <use
       transform="translate(47.069414,-55.9503)"
       height="100%"
       width="100%"
       y="0"
       x="0"
       xlink:href="#path3723"
       id="use3799" />
    <use
       transform="translate(33.814991,-38.83642)"
       height="100%"
       width="100%"
       y="0"
       x="0"
       xlink:href="#path3723"
       id="use3801" />
    <use
       transform="translate(54.973253,-46.756524)"
       height="100%"
       width="100%"
       y="0"
       x="0"
       xlink:href="#path3723"
       id="use3803" />
    <use
       transform="translate(58.743453,-29.180782)"
       height="100%"
       width="100%"
       y="0"
       x="0"
       xlink:href="#path3723"
       id="use3805" />
    <use
       transform="translate(37.633337,-30.43859)"
       height="100%"
       width="100%"
       y="0"
       x="0"
       xlink:href="#path3723"
       id="use3807" />
    <use
       transform="translate(34.160231,-54.356708)"
       height="100%"
       width="100%"
       y="0"
       x="0"
       xlink:href="#path3723"
       id="use3809" />
    <use
       transform="translate(34.284871,-32.374473)"
       height="100%"
       width="100%"
       y="0"
       x="0"
       xlink:href="#path3723"
       id="use3811" />
    <use
       transform="translate(26.874833,-49.982977)"
       height="100%"
       width="100%"
       y="0"
       x="0"
       xlink:href="#path3723"
       id="use3813" />
    <use
       transform="translate(61.145891,-52.528928)"
       height="100%"
       width="100%"
       y="0"
       x="0"
       xlink:href="#path3723"
       id="use3815" />
    <use
       transform="translate(37.920572,-84.809311)"
       height="100%"
       width="100%"
       y="0"
       x="0"
       xlink:href="#path3723"
       id="use3817" />
    <use
       transform="translate(22.544239,-89.127293)"
       height="100%"
       width="100%"
       y="0"
       x="0"
       xlink:href="#path3723"
       id="use3819" />
    <use
       transform="translate(11.408139,-91.69825)"
       height="100%"
       width="100%"
       y="0"
       x="0"
       xlink:href="#path3723"
       id="use3821" />
    <use
       transform="translate(23.446885,-59.632563)"
       height="100%"
       width="100%"
       y="0"
       x="0"
       xlink:href="#path3723"
       id="use3823" />
    <use
       transform="translate(43.589856,-81.857618)"
       height="100%"
       width="100%"
       y="0"
       x="0"
       xlink:href="#path3723"
       id="use3825" />
    <use
       transform="translate(28.441034,-93.657219)"
       height="100%"
       width="100%"
       y="0"
       x="0"
       xlink:href="#path3723"
       id="use3827" />
    <use
       transform="translate(20.198938,-91.096453)"
       height="100%"
       width="100%"
       y="0"
       x="0"
       xlink:href="#path3723"
       id="use3829" />
    <use
       transform="translate(37.009017,-106.14918)"
       height="100%"
       width="100%"
       y="0"
       x="0"
       xlink:href="#path3723"
       id="use3831" />
    <use
       transform="translate(24.47389,-98.957208)"
       height="100%"
       width="100%"
       y="0"
       x="0"
       xlink:href="#path3723"
       id="use3833" />
    <use
       transform="translate(23.698653,-92.673683)"
       height="100%"
       width="100%"
       y="0"
       x="0"
       xlink:href="#path3723"
       id="use3835" />
    <use
       transform="translate(46.895602,-93.34692)"
       height="100%"
       width="100%"
       y="0"
       x="0"
       xlink:href="#path3723"
       id="use3837" />
    <use
       transform="translate(25.259028,-110.58723)"
       height="100%"
       width="100%"
       y="0"
       x="0"
       xlink:href="#path3723"
       id="use3839" />
    <use
       transform="translate(41.190074,-90.532351)"
       height="100%"
       width="100%"
       y="0"
       x="0"
       xlink:href="#path3723"
       id="use3841" />
    <use
       transform="translate(17.645214,-96.921611)"
       height="100%"
       width="100%"
       y="0"
       x="0"
       xlink:href="#path3723"
       id="use3843" />
    <use
       transform="translate(25.815652,-84.442078)"
       height="100%"
       width="100%"
       y="0"
       x="0"
       xlink:href="#path3723"
       id="use3845" />
    <use
       transform="translate(28.086988,-101.58303)"
       height="100%"
       width="100%"
       y="0"
       x="0"
       xlink:href="#path3723"
       id="use3847" />
    <use
       transform="translate(-6.4783964,-148.74802)"
       height="100%"
       width="100%"
       y="0"
       x="0"
       xlink:href="#path3723"
       id="use3849" />
    <use
       transform="translate(-42.635722,-148.76425)"
       height="100%"
       width="100%"
       y="0"
       x="0"
       xlink:href="#path3723"
       id="use3851" />
    <use
       transform="translate(-37.598588,-173.24006)"
       height="100%"
       width="100%"
       y="0"
       x="0"
       xlink:href="#path3723"
       id="use3853" />
    <use
       transform="translate(-19.016131,-137.39784)"
       height="100%"
       width="100%"
       y="0"
       x="0"
       xlink:href="#path3723"
       id="use3855" />
    <use
       transform="translate(-32.615955,-180.89721)"
       height="100%"
       width="100%"
       y="0"
       x="0"
       xlink:href="#path3723"
       id="use3857" />
    <use
       transform="translate(-54.452881,-160.80622)"
       height="100%"
       width="100%"
       y="0"
       x="0"
       xlink:href="#path3723"
       id="use3859" />
    <use
       transform="translate(-51.639156,-161.50284)"
       height="100%"
       width="100%"
       y="0"
       x="0"
       xlink:href="#path3723"
       id="use3861" />
    <use
       transform="translate(-24.154966,-187.13671)"
       height="100%"
       width="100%"
       y="0"
       x="0"
       xlink:href="#path3723"
       id="use3863" />
    <use
       transform="translate(-22.694729,-169.08495)"
       height="100%"
       width="100%"
       y="0"
       x="0"
       xlink:href="#path3723"
       id="use3865" />
    <use
       transform="translate(-49.26376,-160.61374)"
       height="100%"
       width="100%"
       y="0"
       x="0"
       xlink:href="#path3723"
       id="use3867" />
    <use
       transform="translate(-20.270878,-207.25063)"
       height="100%"
       width="100%"
       y="0"
       x="0"
       xlink:href="#path3723"
       id="use3869" />
    <use
       transform="translate(-42.92096,-197.58077)"
       height="100%"
       width="100%"
       y="0"
       x="0"
       xlink:href="#path3723"
       id="use3871" />
    <use
       transform="translate(-19.32971,-187.80704)"
       height="100%"
       width="100%"
       y="0"
       x="0"
       xlink:href="#path3723"
       id="use3873" />
    <use
       transform="translate(-43.388961,-179.07291)"
       height="100%"
       width="100%"
       y="0"
       x="0"
       xlink:href="#path3723"
       id="use3875" />
    <use
       transform="translate(-48.713871,-176.11405)"
       height="100%"
       width="100%"
       y="0"
       x="0"
       xlink:href="#path3723"
       id="use3877" />
    <use
       transform="translate(-56.364535,-172.66801)"
       height="100%"
       width="100%"
       y="0"
       x="0"
       xlink:href="#path3723"
       id="use3879" />
    <use
       transform="translate(-12.35656,-179.4294)"
       height="100%"
       width="100%"
       y="0"
       x="0"
       xlink:href="#path3723"
       id="use3881" />
    <use
       transform="translate(-20.742193,-208.89896)"
       height="100%"
       width="100%"
       y="0"
       x="0"
       xlink:href="#path3723"
       id="use3883" />
    <use
       transform="translate(-37.566087,-193.56347)"
       height="100%"
       width="100%"
       y="0"
       x="0"
       xlink:href="#path3723"
       id="use3885" />
    <use
       transform="translate(-54.349681,-184.63757)"
       height="100%"
       width="100%"
       y="0"
       x="0"
       xlink:href="#path3723"
       id="use3887" />
    <use
       transform="translate(-20.544264,-171.72919)"
       height="100%"
       width="100%"
       y="0"
       x="0"
       xlink:href="#path3723"
       id="use3889" />
    <use
       transform="translate(-59.455875,-182.08126)"
       height="100%"
       width="100%"
       y="0"
       x="0"
       xlink:href="#path3723"
       id="use3891" />
    <use
       transform="translate(-35.264353,-168.25079)"
       height="100%"
       width="100%"
       y="0"
       x="0"
       xlink:href="#path3723"
       id="use3893" />
    <use
       transform="translate(-22.927664,-198.38066)"
       height="100%"
       width="100%"
       y="0"
       x="0"
       xlink:href="#path3723"
       id="use3895" />
    <use
       transform="translate(-15.006912,-180.35223)"
       height="100%"
       width="100%"
       y="0"
       x="0"
       xlink:href="#path3723"
       id="use3897" />
    <use
       transform="translate(-33.623328,-168.05659)"
       height="100%"
       width="100%"
       y="0"
       x="0"
       xlink:href="#path3723"
       id="use3899" />
    <use
       transform="translate(-31.585985,-192.20992)"
       height="100%"
       width="100%"
       y="0"
       x="0"
       xlink:href="#path3723"
       id="use3901" />
    <use
       transform="translate(-47.89856,-195.35745)"
       height="100%"
       width="100%"
       y="0"
       x="0"
       xlink:href="#path3723"
       id="use3903" />
    <use
       transform="translate(-38.674468,-173.62995)"
       height="100%"
       width="100%"
       y="0"
       x="0"
       xlink:href="#path3723"
       id="use3905" />
    <use
       transform="translate(-14.696347,-163.63805)"
       height="100%"
       width="100%"
       y="0"
       x="0"
       xlink:href="#path3723"
       id="use3907" />
    <use
       transform="translate(-27.135982,-183.80092)"
       height="100%"
       width="100%"
       y="0"
       x="0"
       xlink:href="#path3723"
       id="use3909" />
    <use
       transform="translate(-6.0649834,-167.99025)"
       height="100%"
       width="100%"
       y="0"
       x="0"
       xlink:href="#path3723"
       id="use3911" />
    <use
       transform="translate(-6.117042,-149.26438)"
       height="100%"
       width="100%"
       y="0"
       x="0"
       xlink:href="#path3723"
       id="use3913" />
    <use
       transform="translate(-23.911971,-154.48643)"
       height="100%"
       width="100%"
       y="0"
       x="0"
       xlink:href="#path3723"
       id="use3915" />
    <use
       transform="translate(-10.3043,-143.75151)"
       height="100%"
       width="100%"
       y="0"
       x="0"
       xlink:href="#path3723"
       id="use3917" />
    <use
       transform="translate(-11.143879,-128.32395)"
       height="100%"
       width="100%"
       y="0"
       x="0"
       xlink:href="#path3723"
       id="use3919" />
    <use
       transform="translate(9.1246308,-153.86645)"
       height="100%"
       width="100%"
       y="0"
       x="0"
       xlink:href="#path3723"
       id="use3921" />
    <use
       transform="translate(-22.326935,-133.69666)"
       height="100%"
       width="100%"
       y="0"
       x="0"
       xlink:href="#path3723"
       id="use3923" />
    <use
       transform="translate(-10.205982,-145.88786)"
       height="100%"
       width="100%"
       y="0"
       x="0"
       xlink:href="#path3723"
       id="use3925" />
    <use
       transform="translate(9.2706628,-138.98053)"
       height="100%"
       width="100%"
       y="0"
       x="0"
       xlink:href="#path3723"
       id="use3927" />
    <use
       transform="translate(16.369875,-122.99727)"
       height="100%"
       width="100%"
       y="0"
       x="0"
       xlink:href="#path3723"
       id="use3929" />
    <use
       transform="translate(12.514328,-122.36258)"
       height="100%"
       width="100%"
       y="0"
       x="0"
       xlink:href="#path3723"
       id="use3931" />
    <use
       transform="translate(8.1679701,-116.03318)"
       height="100%"
       width="100%"
       y="0"
       x="0"
       xlink:href="#path3723"
       id="use3933" />
    <use
       transform="translate(4.8699031,-103.86859)"
       height="100%"
       width="100%"
       y="0"
       x="0"
       xlink:href="#path3723"
       id="use3935" />
    <use
       transform="translate(21.487559,-127.22809)"
       height="100%"
       width="100%"
       y="0"
       x="0"
       xlink:href="#path3723"
       id="use3937" />
    <use
       transform="translate(5.731268,-119.87377)"
       height="100%"
       width="100%"
       y="0"
       x="0"
       xlink:href="#path3723"
       id="use3939" />
    <use
       transform="translate(15.244178,-94.357925)"
       height="100%"
       width="100%"
       y="0"
       x="0"
       xlink:href="#path3723"
       id="use3941" />
    <use
       transform="translate(39.751097,-116.85441)"
       height="100%"
       width="100%"
       y="0"
       x="0"
       xlink:href="#path3723"
       id="use3943" />
    <use
       transform="translate(13.495688,-125.60018)"
       height="100%"
       width="100%"
       y="0"
       x="0"
       xlink:href="#path3723"
       id="use3945" />
    <use
       transform="translate(45.488986,-116.55502)"
       height="100%"
       width="100%"
       y="0"
       x="0"
       xlink:href="#path3723"
       id="use3947" />
    <use
       transform="translate(21.617945,-90.92988)"
       height="100%"
       width="100%"
       y="0"
       x="0"
       xlink:href="#path3723"
       id="use3949" />
    <use
       transform="translate(23.988902,-96.230991)"
       height="100%"
       width="100%"
       y="0"
       x="0"
       xlink:href="#path3723"
       id="use3951" />
    <use
       transform="translate(9.2369721,-85.519938)"
       height="100%"
       width="100%"
       y="0"
       x="0"
       xlink:href="#path3723"
       id="use3953" />
    <use
       transform="translate(36.599725,-98.550609)"
       height="100%"
       width="100%"
       y="0"
       x="0"
       xlink:href="#path3723"
       id="use3955" />
    <use
       transform="translate(29.56556,-100.33635)"
       height="100%"
       width="100%"
       y="0"
       x="0"
       xlink:href="#path3723"
       id="use3957" />
    <use
       transform="translate(53.785605,-99.604251)"
       height="100%"
       width="100%"
       y="0"
       x="0"
       xlink:href="#path3723"
       id="use3959" />
    <use
       transform="translate(33.2323,-106.22815)"
       height="100%"
       width="100%"
       y="0"
       x="0"
       xlink:href="#path3723"
       id="use3961" />
    <use
       transform="translate(47.846937,-84.063415)"
       height="100%"
       width="100%"
       y="0"
       x="0"
       xlink:href="#path3723"
       id="use3963" />
    <use
       transform="translate(50.0628,-74.796562)"
       height="100%"
       width="100%"
       y="0"
       x="0"
       xlink:href="#path3723"
       id="use3965" />
    <use
       transform="translate(29.314539,-94.381527)"
       height="100%"
       width="100%"
       y="0"
       x="0"
       xlink:href="#path3723"
       id="use3967" />
    <use
       transform="translate(38.259786,-101.08316)"
       height="100%"
       width="100%"
       y="0"
       x="0"
       xlink:href="#path3723"
       id="use3969" />
    <use
       transform="translate(33.927034,-62.691871)"
       height="100%"
       width="100%"
       y="0"
       x="0"
       xlink:href="#path3723"
       id="use3971" />
    <use
       transform="translate(51.676901,-98.412844)"
       height="100%"
       width="100%"
       y="0"
       x="0"
       xlink:href="#path3723"
       id="use3973" />
    <path
       transform="scale(0.26458333)"
       id="path3975"
       d=""
       style="stroke-width:2.85714293;fill:#501616" />
    <path
       transform="scale(0.26458333)"
       id="path3977"
       d=""
       style="fill:#501616;stroke-width:2.85714293" />
    <path
       transform="scale(0.26458333)"
       id="path3979"
       d="m 380.54522,614.00838 c -0.9916,-3.95086 -1.32708,-7.59753 -0.7455,-8.10371 2.88452,-2.51057 67.62104,-38.81356 69.21343,-38.81356 1.0142,0 1.84399,3.79556 1.84399,8.43456 0,7.29609 -2.33455,9.80281 -17.29593,18.57143 -9.51276,5.57528 -18.45618,10.13687 -19.87427,10.13687 -1.41808,0 -9.04944,3.8155 -16.95857,8.47889 l -14.38024,8.4789 z"
       style="fill:#501616;stroke-width:2.85714293" />
    <path
       transform="scale(0.26458333)"
       id="path3981"
       d="m 371.97791,571.16764 c -2.29925,-9.16093 -2.62429,-8.86469 30.87062,-28.13603 19.68417,-11.32532 30.70544,-15.9405 38.06664,-15.9405 17.85049,0 10.8431,7.77189 -27.20088,30.16847 -19.64286,11.5638 -36.65408,21.07797 -37.80271,21.1426 -1.14864,0.0646 -2.91879,-3.19091 -3.93367,-7.23454 z"
       style="fill:#501616;stroke-width:2.85714293" />
    <path
       transform="scale(0.26458333)"
       id="path3983"
       d=""
       style="fill:#501616;stroke-width:2.85714293" />
    <path
       transform="scale(0.26458333)"
       id="path3985"
       d="m 358.34762,458.87864 c -3.64943,-22.06515 -4.54765,-20.98308 37.04968,-44.633 21.35423,-12.14082 39.81943,-20.96729 41.0338,-19.61437 1.21436,1.35291 3.48504,7.72897 5.04596,14.169 l 2.83803,11.70917 -42.12709,24.36407 -42.12708,24.36408 z"
       style="fill:#501616;stroke-width:2.85714293" />
    <path
       transform="scale(0.26458333)"
       id="path3987"
       d=""
       style="fill:#501616;stroke-width:2.85714293" />
    <path
       transform="scale(0.26458333)"
       id="path3989"
       d=""
       style="fill:#501616;stroke-width:2.85714293" />
    <path
       transform="scale(0.26458333)"
       id="path3991"
       d="m 203.71429,517.74796 c -6.28572,-1.59872 -20.17736,-5.43995 -30.87033,-8.53606 -31.64085,-9.16151 -30.43546,-10.35586 66.19808,-65.59212 46.14455,-26.37648 84.50259,-47.95724 85.24008,-47.95724 0.7375,0 -2.45318,4.82143 -7.0904,10.71429 -4.63721,5.89286 -11.10441,15.85714 -14.37155,22.14286 -7.1404,13.73756 -20.51038,26.68128 -36.93106,35.75365 -6.661,3.68017 -11.46804,7.33408 -10.68233,8.11979 0.78572,0.78572 6.55705,-1.45379 12.82518,-4.97668 6.26814,-3.52288 11.39661,-5.78264 11.39661,-5.02166 0,0.76097 -6.94317,11.46296 -15.42926,23.78222 -10.1165,14.68609 -19.35062,24.60256 -26.81759,28.79923 -12.29543,6.91041 -15.99169,7.21653 -33.46743,2.77172 z"
       style="fill:#501616;stroke-width:2.85714293" />
    <path
       transform="scale(0.26458333)"
       id="path3993"
       d="m 163.83473,583.26866 c -3.99482,-6.81663 -7.2633,-13.64584 -7.2633,-15.17601 0,-3.17146 65.60353,-41.00154 71.10336,-41.00154 5.03476,0 3.41709,4.37463 -9.67479,26.16331 -7.03697,11.71156 -14.96519,20.92513 -20.63217,23.97713 -5.06198,2.72617 -8.55566,6.00506 -7.76373,7.28644 1.22753,1.98618 -12.7888,11.14455 -17.05606,11.14455 -0.79751,0 -4.7185,-5.57724 -8.71331,-12.39388 z"
       style="fill:#501616;stroke-width:2.85714293" />
    <path
       transform="scale(0.26458333)"
       id="path3995"
       d="m 152.67613,476.28524 c -0.96585,-5.84249 -1.77025,-20.47486 -1.78754,-32.51639 l -0.0315,-21.8937 113.57143,-65.01212 c 62.46429,-35.75668 115.5347,-66.66572 117.93424,-68.68677 3.70818,-3.12326 5.9589,-1.7064 15,9.44272 5.85046,7.21455 10.63719,13.92871 10.63719,14.92037 0,0.99166 -48.92243,29.89191 -108.71651,64.22278 -59.79408,34.33088 -108.08338,63.05291 -107.30954,63.82674 0.77383,0.77384 17.38492,-7.73231 36.91352,-18.90254 19.5286,-11.17022 36.99133,-20.3095 38.80606,-20.3095 1.81472,0 34.89406,-18.08915 73.50964,-40.19811 38.61557,-22.10897 70.73348,-39.67477 71.37312,-39.03513 3.32478,3.32478 15.1456,43.48585 13.29887,45.18271 -1.18848,1.09203 -18.19853,11.09773 -37.80011,22.23489 -31.73771,18.03263 -35.93752,19.70956 -38.36402,15.31822 -4.48592,-8.11834 -11.28179,-11.82536 -18.85389,-10.28443 -3.92857,0.79946 2.17857,-4.04014 13.57143,-10.75467 11.39286,-6.71453 20.71429,-13.33482 20.71429,-14.71174 0,-1.37693 -4.17857,0.026 -9.28572,3.11769 -11.04794,6.68799 -186.59659,106.85163 -195.35531,111.46483 -5.57708,2.93743 -6.2121,2.33486 -7.8257,-7.42585 z"
       style="fill:#501616;stroke-width:2.85714293" />
    <path
       transform="scale(0.26458333)"
       id="path3997"
       d=""
       style="fill:#501616;stroke-width:2.85714293" />
    <path
       transform="scale(0.26458333)"
       id="path3999"
       d=""
       style="fill:#501616;stroke-width:2.85714293" />
    <path
       transform="scale(0.26458333)"
       id="path4001"
       d="m 122.28571,494.42505 c -18.44341,-6.80931 -64.176153,-30.82576 -75.086001,-39.43126 -14.148386,-11.16 -19.294404,-21.70112 -19.790007,-40.53791 -0.487433,-18.52626 -0.451605,-18.58501 38.777715,-63.59461 23.240849,-26.66529 35.998403,-38.57158 54.569823,-50.92858 13.33081,-8.87001 25.47098,-15.36516 26.97817,-14.43367 1.50718,0.93149 10.86186,-2.73767 20.78818,-8.15369 21.86258,-11.92871 49.59874,-19.42021 67.59466,-18.25724 l 13.31032,0.86017 -89.32171,51.15448 c -49.12694,28.13496 -88.708734,51.76745 -87.959543,52.51664 0.749192,0.74919 24.30096,-11.66318 52.337263,-27.58305 28.03631,-15.91987 52.36408,-28.94522 54.06172,-28.94522 3.69699,0 45.71301,-21.60888 72.98041,-37.5339 10.74356,-6.27458 22.18806,-11.00346 25.43224,-10.50864 3.91142,0.5966 -17.77025,14.3749 -64.36015,40.89969 -38.64226,22 -70.2709,41.04016 -70.28587,42.31147 -0.0149,1.27132 0.93707,1.75289 2.11564,1.07018 1.17857,-0.68272 35.12999,-20.07518 75.4476,-43.09435 l 73.30475,-41.85303 28.12382,5.89362 c 15.46812,3.2415 30.32817,6.80807 33.0224,7.92572 3.5752,1.48313 -14.94931,13.4359 -68.57144,44.24505 -70.36423,40.4285 -95.85958,57.38927 -89.61346,59.61531 4.84689,1.72737 -3.08897,9.90552 -18.26347,18.82107 -7.79046,4.57717 -14.16448,9.88617 -14.16448,11.79776 0,3.34366 -6.48055,8.84714 -10.52451,8.93773 -1.07419,0.0241 -2.55315,-3.49196 -3.28658,-7.81339 -0.73342,-4.32143 -1.17255,12.36113 -0.97585,37.07235 0.33136,41.62508 -0.0573,45.2432 -5.28484,49.19485 -6.74776,5.10085 -8.42068,5.12846 -21.3568,0.35245 z"
       style="fill:#501616;stroke-width:2.85714293" />
    <path
       transform="scale(0.26458333)"
       id="path4003"
       d=""
       style="fill:#501616;stroke-width:2.85714293" />
    <path
       transform="scale(0.26458333)"
       id="path4005"
       d=""
       style="fill:#501616;stroke-width:2.85714293" />
    <path
       transform="scale(0.26458333)"
       id="path4007"
       d="m 395.44854,648.28601 c -0.95384,-2.48567 -1.73425,-4.76472 -1.73425,-5.06456 0,-0.29984 4.5,-2.96858 10,-5.93053 9.84852,-5.30378 13.09619,-10.19981 6.76581,-10.19981 -1.77881,0 -7.41182,2.58192 -12.51782,5.7376 l -9.28362,5.7376 -1.64833,-6.30321 c -1.77753,-6.79729 2.32078,-13.74341 8.1088,-13.74341 1.97026,0 14.9914,-6.31112 28.93587,-14.02471 13.94446,-7.71359 25.6789,-13.70969 26.07653,-13.32467 0.39763,0.38503 -0.94109,8.92174 -2.97492,18.97046 l -3.69789,18.27041 -19.88221,11.98744 c -22.25352,13.41714 -25.65974,14.37161 -28.14797,7.88739 z"
       style="fill:#501616;stroke-width:2.85714293" />
    <path
       transform="scale(0.26458333)"
       id="path4009"
       d="m 365.14286,510.19416 c 0,-3.76109 5.80585,-8.7152 18.59588,-15.86779 10.22773,-5.71968 19.59755,-9.78034 20.82182,-9.0237 1.22427,0.75663 13.05773,-4.86714 26.29658,-12.49727 13.23885,-7.63014 25.2067,-13.17085 26.59521,-12.3127 1.38852,0.85815 0.79405,3.18831 -1.32103,5.17814 -4.18945,3.94135 -86.39567,49.9917 -89.24209,49.9917 -0.9605,0 -1.74637,-2.46077 -1.74637,-5.46838 z"
       style="fill:#501616;stroke-width:2.85714293" />
    <path
       transform="scale(0.26458333)"
       id="path4011"
       d=""
       style="fill:#501616;stroke-width:2.85714293" />
    <path
       transform="scale(0.26458333)"
       id="path4013"
       d=""
       style="fill:#501616;stroke-width:2.85714293" />
    <path
       transform="scale(0.26458333)"
       id="path4015"
       d=""
       style="fill:#501616;stroke-width:2.85714293" />
    <path
       transform="scale(0.26458333)"
       id="path4017"
       d=""
       style="fill:#501616;stroke-width:2.85714293" />
    <path
       transform="scale(0.26458333)"
       id="path4019"
       d=""
       style="fill:#501616;stroke-width:2.85714293" />
    <path
       transform="scale(0.26458333)"
       id="path4021"
       d=""
       style="fill:#501616;stroke-width:2.85714293" />
    <path
       transform="scale(0.26458333)"
       id="path4023"
       d=""
       style="fill:#501616;stroke-width:2.85714293" />
    <path
       transform="scale(0.26458333)"
       id="path4025"
       d=""
       style="fill:#501613;stroke-width:2.85714293" />
  </g>
  <path
     style="fill:#501616;stroke-width:4.75643921"
     d="m 358.79888,450.89978 c 0,-10.08261 6.13415,-15.71444 36.4366,-33.4528 20.04013,-11.73103 38.23351,-20.2186 40.42974,-18.86126 2.19622,1.35734 3.97881,7.15747 3.96131,12.88917 -0.0244,8.00094 -8.03338,14.84001 -34.48419,29.44704 -43.98582,24.29045 -46.34346,24.79806 -46.34346,9.97785 z"
     id="path3884"
     inkscape:connector-curvature="0"
     transform="scale(0.26458333)" />
  <path
     style="fill:#501616;stroke-width:4.75643921"
     d="m 544.30001,438.54371 c 9.31488,-6.01974 15.6115,-6.01974 11.8911,0 -1.6168,2.61604 -6.55902,4.72366 -10.9827,4.6836 -6.93144,-0.0628 -7.05699,-0.71008 -0.9084,-4.6836 z"
     id="path3886"
     inkscape:connector-curvature="0"
     transform="scale(0.26458333)" />
  <path
     style="fill:#501616;stroke-width:4.75643921"
     d="m 461.06232,348.17136 c 1.61681,-2.61604 3.88352,-4.75644 5.03715,-4.75644 1.15363,0 2.09751,2.1404 2.09751,4.75644 0,2.61604 -2.26671,4.75644 -5.03715,4.75644 -2.77043,0 -3.71431,-2.1404 -2.09751,-4.75644 z"
     id="path3888"
     inkscape:connector-curvature="0"
     transform="scale(0.26458333)" />
  <path
     style="fill:#501616;stroke-width:4.75643921"
     d="m 430.14547,371.67285 c 0,-2.77044 2.1404,-3.71432 4.75644,-2.09751 6.09483,3.76681 6.09483,7.13466 0,7.13466 -2.61604,0 -4.75644,-2.26672 -4.75644,-5.03715 z"
     id="path3890"
     inkscape:connector-curvature="0"
     transform="scale(0.26458333)" />
  <path
     style="fill:#501616;stroke-width:4.75643921"
     d="m 358.79888,450.89978 c 0,-10.08261 6.13415,-15.71444 36.4366,-33.4528 20.04013,-11.73103 38.23351,-20.2186 40.42974,-18.86126 2.19622,1.35734 3.97881,7.15747 3.96131,12.88917 -0.0244,8.00094 -8.03338,14.84001 -34.48419,29.44704 -43.98582,24.29045 -46.34346,24.79806 -46.34346,9.97785 z"
     id="path3892"
     inkscape:connector-curvature="0"
     transform="scale(0.26458333)" />
  <path
     style="fill:#501616;stroke-width:4.75643921"
     d=""
     id="path3894"
     inkscape:connector-curvature="0"
     transform="scale(0.26458333)" />
  <path
     style="fill:none;stroke:#000000;stroke-width:0.26458332px;stroke-linecap:butt;stroke-linejoin:miter;stroke-opacity:1"
     d="m 100.24788,143.75612 c 0.59502,7.02193 0.43009,14.0672 0.43009,21.10405 0,1.25847 -0.17798,2.5296 0,3.77542 0.2446,1.71223 1.01387,3.32167 1.25847,5.0339 0.17797,1.24582 -0.17798,2.5296 0,3.77542 0.2446,1.71223 1.04394,3.31765 1.25847,5.0339 0.20813,1.66501 -0.2373,3.3728 0,5.0339 0.18761,1.31322 1.04039,2.46692 1.25848,3.77542 0.20689,1.24135 -0.20689,2.53408 0,3.77543 0.21808,1.3085 1.04039,2.46692 1.25847,3.77542 0.34482,2.06892 -0.41134,4.23565 0,6.29237 0.41949,1.25848 0.83898,2.51695 1.25848,3.77543 0.41949,0.41949 1.07087,0.69567 1.25847,1.25847 0.26531,0.79593 -0.26531,1.72102 0,2.51695 0.1876,0.56281 0.99317,0.72786 1.25848,1.25848 0.1876,0.3752 0,0.83898 0,1.25847 0.41949,0.83898 0.73816,1.73648 1.25847,2.51695 4.17384,4.17383 -0.59325,-1.1865 1.25848,2.51695 0.26531,0.53062 0.99316,0.72785 1.25847,1.25847 0.1876,0.37521 -0.1876,0.88327 0,1.25848 0.26531,0.53062 0.99316,0.72785 1.25847,1.25847 0.18761,0.37521 -0.1876,0.88327 0,1.25848 0.26532,0.53061 0.99317,0.72785 1.25848,1.25847 0.1876,0.37521 -0.29662,0.96185 0,1.25848 0.29662,0.29662 0.96185,-0.29663 1.25847,0 0.29663,0.29662 0,0.83898 0,1.25847 0.4195,0 0.96185,-0.29662 1.25848,0 0.29662,0.29662 -0.29663,0.96185 0,1.25847 0.29662,0.29663 0.88327,-0.1876 1.25847,0 0.53062,0.26532 0.83899,0.83899 1.25848,1.25848 0.41949,0.41949 0.99316,0.72785 1.25847,1.25847 0.1876,0.37521 0,0.83899 0,1.25848"
     id="path3896"
     inkscape:connector-curvature="0" />
  <path
     style="fill:none;stroke:#000000;stroke-width:0.26458332px;stroke-linecap:butt;stroke-linejoin:miter;stroke-opacity:1"
     d="m 86.993081,217.00883 c -1.51587,-0.89574 -7.265183,-4.16637 -8.967658,-5.5851 -1.367242,-1.13937 -2.408182,-2.63606 -3.775424,-3.77543 -1.161934,-0.96828 -2.705926,-1.44745 -3.775424,-2.51695 -1.069497,-1.06949 -1.447451,-2.70592 -2.51695,-3.77542 -11.651408,-11.65141 4.819219,8.13937 -7.550846,-6.29237 -1.365006,-1.59251 -2.410417,-3.44139 -3.775424,-5.0339 -5.832999,-6.80516 -2.030579,-0.52892 -7.550848,-8.80932 -1.356815,-2.03523 -2.418607,-4.25715 -3.775422,-6.29238 -2.32692,-3.49038 -5.112604,-6.65425 -7.550848,-10.06779 -0.879121,-1.23077 -1.84054,-2.42261 -2.51695,-3.77543 -0.593251,-1.1865 -0.665223,-2.58892 -1.258474,-3.77542 -0.67641,-1.35282 -1.84054,-2.4226 -2.51695,-3.77542 -0.593249,-1.1865 -0.73592,-2.55614 -1.258475,-3.77543 -0.738999,-1.72433 -1.777947,-3.30956 -2.516946,-5.0339 -1.293169,-3.01739 -1.604643,-5.61624 -2.516951,-8.80932 -0.728862,-2.55101 -1.996634,-4.94927 -2.516949,-7.55085 -0.164538,-0.82269 0,-1.67796 0,-2.51695 0,-2.51694 0,-5.03389 0,-7.55084 0,-2.51695 0,-5.0339 0,-7.55085 0,-0.41949 0,-0.83898 0,-1.25847 0,-0.4195 -0.187602,-0.88327 0,-1.25848 0.26531,-0.53062 0.993165,-0.72785 1.258475,-1.25847 0.187602,-0.37521 -0.132655,-0.86051 0,-1.25848 0.296625,-0.88987 0.961849,-1.62707 1.258474,-2.51695 0.132655,-0.39796 -0.187602,-0.88327 0,-1.25847 0.26531,-0.53062 0.993165,-0.72786 1.258475,-1.25847 0.187601,-0.37521 -0.187603,-0.883276 0,-1.258479 0.265309,-0.530619 0.993165,-0.727856 1.258476,-1.258475 0.1876,-0.375206 -0.296628,-0.96185 0,-1.258475 0.296624,-0.296624 0.961847,0.296625 1.258472,0 0.296627,-0.296624 -0.187601,-0.883269 0,-1.258474 0.265311,-0.53062 0.745177,-0.961036 1.258474,-1.258475 2.551139,-1.478296 5.24849,-2.688495 7.872733,-4.032742"
     id="path3898"
     inkscape:connector-curvature="0" />
  <path
     style="fill:#550000;stroke:#000000;stroke-width:0.26458332px;stroke-linecap:butt;stroke-linejoin:miter;stroke-opacity:1"
     d="m 38.076121,90.35285 c -0.107294,4.280688 -1.134131,8.637772 -0.321884,12.84206 0.656539,3.39833 8.195603,8.57005 10.067798,10.0678 2.097455,1.67797 4.120059,3.45404 6.292371,5.0339 2.446424,1.77922 5.188722,3.1442 7.550848,5.0339 1.853004,1.4824 3.24803,3.47126 5.033899,5.03389 1.578496,1.38119 3.441388,2.41042 5.033896,3.77543 1.351288,1.15825 2.408182,2.63605 3.775424,3.77542 1.161934,0.96828 2.594362,1.5721 3.775425,2.51695 1.940639,-0.32241 2.966307,4.22478 3.775424,5.0339 0.663273,0.66327 1.736476,0.73816 2.516949,1.25847 0.987227,0.65816 1.455709,1.98633 2.516947,2.51695 0.375206,0.18761 0.961851,-0.29662 1.258475,0 0.296627,0.29663 -0.296624,0.96185 0,1.25848 0.296627,0.29662 0.96185,-0.29663 1.258475,0 0.296627,0.29662 -0.296625,0.96185 0,1.25847 0.296627,0.29663 0.96185,-0.29662 1.258474,0 2.603828,2.60383 -3.978994,-0.10178 1.258475,2.51695 0.375206,0.1876 0.883269,-0.1876 1.258475,0 1.51017,0.75509 2.265254,3.02034 3.775424,3.77543 0.375206,0.1876 0.883269,-0.18761 1.258475,0 1.061239,0.53062 1.567749,1.80504 2.516949,2.51695 1.21,0.90749 2.51695,1.67796 3.77542,2.51694 3.77543,2.51695 7.55085,5.0339 11.32627,7.55085 1.25848,0.83898 2.59437,1.5721 3.77543,2.51695 1.38975,1.1118 2.29458,2.7882 3.77542,3.77542 0.83898,0.4195 1.67797,0.83899 2.51695,1.25848 0.41949,0 0.88327,-0.1876 1.25847,0 2.31688,1.15843 0.20008,2.61699 2.51695,3.77542 0.37521,0.1876 0.96185,-0.29662 1.25848,0 0.29662,0.29663 -0.29663,0.96185 0,1.25848 0.29662,0.29662 0.96185,-0.29663 1.25847,0 0.29663,0.29662 -0.29662,0.96185 0,1.25847 0.29663,0.29663 0.96185,-0.29662 1.25848,0 0.29662,0.29663 -0.403,1.37493 0,1.25847 0.71948,-0.2079 0.98911,-1.1248 1.48366,-1.6872"
     id="path3900"
     inkscape:connector-curvature="0" />
  <path
     style="fill:#550000;stroke-width:4.75643921"
     d="m 259.72824,761.51841 c -3.42659,-5.48683 -5.54675,-10.43952 -4.71148,-11.00598 9.99771,-6.78018 104.75436,-59.36318 114.70791,-63.6545 15.94365,-6.87385 17.61285,-7.00927 17.61285,-1.42884 0,2.36884 -20.2186,15.68314 -44.93021,29.58735 -24.71162,13.9042 -44.08583,26.12473 -43.05383,27.15674 1.75954,1.75953 53.62254,-25.74338 77.28205,-40.98261 5.88609,-3.79127 10.70199,-5.02616 10.70199,-2.74421 0,2.28195 -10.16689,10.39718 -22.59309,18.03384 -69.06629,42.44548 -90.65823,55.01426 -94.5091,55.01426 -2.35232,0 -7.08051,-4.48922 -10.50709,-9.97605 z"
     id="path3902"
     inkscape:connector-curvature="0"
     transform="scale(0.26458333)" />
  <path
     style="fill:#550000;stroke-width:4.75643921"
     d=""
     id="path3904"
     inkscape:connector-curvature="0"
     transform="scale(0.26458333)" />
  <path
     style="fill:#550000;stroke-width:4.75643921"
     d=""
     id="path3906"
     inkscape:connector-curvature="0"
     transform="scale(0.26458333)" />
  <path
     style="fill:#550000;stroke-width:4.75643921"
     d="m 359.67206,449.2457 c 1.23457,-10.7296 7.88572,-16.70033 37.01091,-33.22468 35.14177,-19.9379 45.58127,-20.68174 42.17709,-3.00523 -1.68533,8.75118 -62.53934,48.97057 -74.43157,49.193 -4.04373,0.0756 -5.72841,-4.51575 -4.75643,-12.96309 z"
     id="path3908"
     inkscape:connector-curvature="0"
     transform="scale(0.26458333)" />
  <path
     style="fill:#550000;stroke-width:4.75643921"
     d="m 358.87171,454.00214 c 0.11315,-12.93111 4.9472,-17.86148 35.60046,-36.30982 29.74856,-17.90385 45.18618,-21.62593 45.18618,-10.89458 0,8.38889 -16.0564,22.69883 -45.71223,40.74011 -27.76203,16.88918 -35.17759,18.25588 -35.07441,6.46429 z"
     id="path3910"
     inkscape:connector-curvature="0"
     transform="scale(0.26458333)" />
  <path
     style="fill:#550000;stroke-width:4.75643921"
     d="m 461.06232,433.78727 c -1.6168,-2.61604 -0.79924,-4.75644 1.8168,-4.75644 2.61604,0 6.07928,2.1404 7.69608,4.75644 1.61681,2.61604 0.79925,4.75644 -1.81679,4.75644 -2.61605,0 -6.07928,-2.1404 -7.69609,-4.75644 z"
     id="path3912"
     inkscape:connector-curvature="0"
     transform="scale(0.26458333)" />
  <path
     style="fill:#550000;stroke-width:4.75643921"
     d=""
     id="path3914"
     inkscape:connector-curvature="0"
     transform="scale(0.26458333)" />
  <path
     style="fill:#550000;stroke-width:4.75643921"
     d=""
     id="path3916"
     inkscape:connector-curvature="0"
     transform="scale(0.26458333)" />
  <path
     style="fill:#550000;stroke-width:4.75643921"
     d=""
     id="path3918"
     inkscape:connector-curvature="0"
     transform="scale(0.26458333)" />
  <path
     style="fill:#550000;stroke-width:4.75643921"
     d="m 203.25987,703.7152 c -24.51164,-26.91155 -23.73108,-29.78933 13.99299,-51.5893 18.98937,-10.97358 56.40662,-32.64553 83.14942,-48.15989 43.77028,-25.39255 58.3966,-29.9683 58.3966,-18.26902 0,2.14427 -6.42119,6.55842 -14.26932,9.80922 -7.84812,3.2508 -14.26932,8.00268 -14.26932,10.55975 0,2.55706 7.61374,0.15699 16.91942,-5.33349 9.30568,-5.49049 17.65788,-9.9827 18.56046,-9.9827 1.36244,0 12.08452,27.55161 12.08452,31.05256 0,1.48571 -160.13492,92.61486 -162.74566,92.61486 -1.13932,0 -6.45792,-4.8159 -11.81911,-10.70199 z"
     id="path3920"
     inkscape:connector-curvature="0"
     transform="scale(0.26458333)" />
  <path
     style="fill:#550000;stroke-width:4.75643921"
     d="m 199.68492,694.79349 c -11.5762,-13.75753 -11.94017,-15.49688 -4.87625,-23.30244 4.19856,-4.63934 33.71725,-23.37502 65.59711,-41.63484 75.70676,-43.36254 89.13344,-50.00301 92.88957,-45.94065 1.71892,1.85907 0.75334,4.23448 -2.14573,5.2787 -2.89907,1.04421 -9.3169,4.85698 -14.26184,8.47281 -13.90424,10.16703 -4.60807,13.76809 12.58739,4.87597 12.6374,-6.53505 16.05702,-6.80655 19.39494,-1.53983 10.0096,15.7936 2.73874,22.35623 -72.11474,65.09032 -41.97206,23.96197 -78.16855,43.56722 -80.43665,43.56722 -2.26811,0 -9.75331,-6.69026 -16.6338,-14.86726 z"
     id="path3922"
     inkscape:connector-curvature="0"
     transform="scale(0.26458333)" />
  <path
     style="fill:#550000;stroke-width:4.75643921"
     d=""
     id="path3924"
     inkscape:connector-curvature="0"
     transform="scale(0.26458333)" />
  <path
     style="fill:#550000;stroke-width:4.75643921"
     d="m 161.04829,642.58243 c -14.28974,-19.46653 -16.45693,-25.02684 -11.08102,-28.4303 7.54083,-4.77407 13.22047,-5.91843 22.76884,-4.58756 3.61516,0.50388 14.31715,-6.45687 23.78219,-15.46833 17.99446,-17.13214 80.17596,-53.7415 84.29107,-49.62638 1.30803,1.30802 -11.80661,10.31083 -29.14363,20.00624 -17.33701,9.69541 -30.4798,18.67007 -29.20619,19.94368 1.27361,1.27361 19.61875,-7.66476 40.76697,-19.86304 21.14822,-12.19828 40.95854,-21.34296 44.02292,-20.3215 3.06438,1.02147 -27.02898,20.68578 -66.87414,43.69848 -39.84517,23.01271 -71.5261,42.76093 -70.40208,43.88496 1.12402,1.12401 23.155,-10.14511 48.95774,-25.04251 25.80274,-14.8974 51.74835,-27.61685 57.6569,-28.26544 5.90856,-0.6486 18.22255,-5.80198 27.36443,-11.45197 9.14187,-5.64999 19.01406,-8.79408 21.93819,-6.98687 3.08173,1.90461 -6.80756,10.11839 -23.52593,19.53999 -15.8634,8.93978 -30.38415,18.74853 -32.26835,21.79722 -1.88419,3.0487 6.76914,-0.43155 19.22965,-7.7339 12.46049,-7.30234 23.91435,-12.01808 25.453,-10.47943 1.53866,1.53866 1.90572,3.68048 0.81571,4.7596 -1.82127,1.80305 -110.58111,64.7396 -128.83757,74.55501 -6.30521,3.38993 -11.61061,-0.72251 -25.7087,-19.92795 z"
     id="path3926"
     inkscape:connector-curvature="0"
     transform="scale(0.26458333)" />
  <path
     style="fill:#550000;stroke-width:4.75643921"
     d=""
     id="path3928"
     inkscape:connector-curvature="0"
     transform="scale(0.26458333)" />
  <path
     style="fill:#550000;stroke-width:4.75643921"
     d=""
     id="path3930"
     inkscape:connector-curvature="0"
     transform="scale(0.26458333)" />
  <path
     style="fill:#550000;stroke-width:4.75643921"
     d="m 149.51555,536.05071 c 0,-14.38823 2.1404,-26.16041 4.75644,-26.16041 2.61604,0 4.75644,11.77218 4.75644,26.16041 0,14.38823 -2.1404,26.16042 -4.75644,26.16042 -2.61604,0 -4.75644,-11.77219 -4.75644,-26.16042 z"
     id="path3932"
     inkscape:connector-curvature="0"
     transform="scale(0.26458333)" />
  <path
     style="fill:#550000;stroke-width:4.75643921"
     d="m 149.51555,536.05071 c 0,-7.09048 2.04811,-11.18671 4.75644,-9.51287 6.13389,3.79095 6.13389,15.2348 0,19.02575 -2.70833,1.67384 -4.75644,-2.42239 -4.75644,-9.51288 z"
     id="path3934"
     inkscape:connector-curvature="0"
     transform="scale(0.26458333)" />
  <path
     style="fill:#550000;stroke-width:4.75643921"
     d="m 220.9679,558.94814 c 0.0582,-2.12942 3.88713,-8.78574 8.50879,-14.79182 6.59011,-8.56417 10.72024,-10.06296 19.14347,-6.94701 10.20199,3.77397 9.77542,4.51553 -8.50879,14.79183 -10.58708,5.95027 -19.20164,9.07642 -19.14347,6.947 z"
     id="path3936"
     inkscape:connector-curvature="0"
     transform="scale(0.26458333)" />
  <path
     style="fill:#550000;stroke-width:4.75643921"
     d="m 231.56191,546.7527 c 1.08879,-3.27005 6.01492,-6.72752 10.94695,-7.68326 7.75822,-1.50341 8.10754,-0.70175 2.59078,5.94555 -7.54467,9.09077 -16.36289,10.22268 -13.53773,1.73771 z"
     id="path3938"
     inkscape:connector-curvature="0"
     transform="scale(0.26458333)" />
  <path
     style="fill:#550000;stroke-width:4.75643921"
     d="m 307.05857,489.18581 c -2.88994,-3.48216 -3.6677,-8.08059 -1.72837,-10.21874 1.93934,-2.13814 -0.21963,-2.54348 -4.7977,-0.90075 -4.57808,1.64273 -8.32377,1.40762 -8.32377,-0.52248 0,-3.52918 53.07295,-34.24369 59.17118,-34.24369 1.79589,0 2.59454,6.48768 1.77478,14.41706 -1.14809,11.10524 -6.01027,17.10276 -21.16608,26.10843 -16.0739,9.55122 -20.63745,10.53242 -24.93004,5.36017 z"
     id="path3940"
     inkscape:connector-curvature="0"
     transform="scale(0.26458333)" />
  <path
     style="fill:#550000;stroke-width:4.75643921"
     d="m 306.63205,481.63942 c -4.34879,-8.1258 -2.30199,-10.92829 15.6766,-21.46445 24.67413,-14.46 26.97735,-14.74538 26.97735,-3.34269 0,9.32272 -9.92288,19.82135 -27.14982,28.72509 -8.84125,4.5696 -11.29336,3.94995 -15.50413,-3.91795 z"
     id="path3942"
     inkscape:connector-curvature="0"
     transform="scale(0.26458333)" />
  <path
     style="fill:#550000;stroke-width:4.75643921"
     d=""
     id="path3944"
     inkscape:connector-curvature="0"
     transform="scale(0.26458333)" />
  <path
     style="fill:#550000;stroke-width:4.75643921"
     d=""
     id="path3946"
     inkscape:connector-curvature="0"
     transform="scale(0.26458333)" />
  <path
     style="fill:#550000;stroke-width:4.75643921"
     d=""
     id="path3948"
     inkscape:connector-curvature="0"
     transform="scale(0.26458333)" />
  <path
     style="fill:#550000;stroke-width:4.75643921"
     d="m 363.55532,476.8881 c 0,-4.6798 72.75256,-47.85727 80.63785,-47.85727 11.27943,0 3.77224,8.96244 -13.1932,15.75067 -9.99419,3.99888 -29.25777,13.80754 -42.80795,21.79701 -13.55019,7.98947 -24.6367,12.62879 -24.6367,10.30959 z"
     id="path3950"
     inkscape:connector-curvature="0"
     transform="scale(0.26458333)" />
  <path
     style="fill:#550000;stroke-width:4.75643921"
     d=""
     id="path3952"
     inkscape:connector-curvature="0"
     transform="scale(0.26458333)" />
  <path
     style="fill:#550000;stroke-width:4.75643921"
     d="M 425.16611,624.78528 C 410.65528,615.13505 388.3227,598.71335 375.53816,588.2926 353.31539,570.17871 345.86895,563.69828 313.61271,534.40057 279.83978,503.7253 235.01158,466.81147 201.83638,442.35826 148.80644,403.27024 143.93612,396.84154 145.67898,368.23191 l 1.45835,-23.93933 45.18617,42.52341 c 24.8524,23.38787 65.51995,62.28534 90.37235,86.43881 51.00731,49.57285 103.28147,97.64622 132.76695,122.09771 20.52566,17.02137 46.63011,48.00195 39.89604,47.34836 -2.09517,-0.20334 -15.68189,-8.26537 -30.19273,-17.91559 z"
     id="path3954"
     inkscape:connector-curvature="0"
     transform="scale(0.26458333)" />
  <path
     style="fill:#550000;stroke-width:4.75643921"
     d=""
     id="path3956"
     inkscape:connector-curvature="0"
     transform="scale(0.26458333)" />
  <path
     style="fill:#550000;stroke-width:4.75643921"
     d="m 320.74736,500.77843 c 0,-2.73026 8.5616,-9.33191 19.02576,-14.67033 10.46417,-5.33842 19.02576,-7.91645 19.02576,-5.72896 0,2.18749 -8.56159,8.78913 -19.02576,14.67032 -10.46416,5.88119 -19.02576,8.45923 -19.02576,5.72897 z"
     id="path3958"
     inkscape:connector-curvature="0"
     transform="scale(0.26458333)" />
  <path
     style="fill:none;stroke:#000000;stroke-width:0.26458332px;stroke-linecap:butt;stroke-linejoin:miter;stroke-opacity:1"
     d="m 141.42812,160.8284 c 8.67671,0.67474 -1.47245,0.45504 5.8134,-1.00213 1.23404,-0.24681 2.53408,0.20689 3.77543,0 1.3085,-0.21809 2.49991,-0.89405 3.77542,-1.25847 3.32612,-0.95032 6.7861,-1.42306 10.0678,-2.51695 2.1431,-0.71437 4.12861,-1.86782 6.29237,-2.51695 2.04879,-0.61464 4.20431,-0.79447 6.29237,-1.25848 3.37684,-0.75041 6.74168,-1.56663 10.0678,-2.51695 1.27551,-0.36443 2.58892,-0.66522 3.77542,-1.25847 1.35282,-0.67641 2.42261,-1.84054 3.77543,-2.51695 1.1865,-0.59325 2.54375,-0.76581 3.77542,-1.25848 0.87092,-0.34836 1.67797,-0.83898 2.51695,-1.25847 0.83898,-0.41949 1.73648,-0.73816 2.51695,-1.25847 0.61016,-0.40678 5.8856,-5.68222 6.29237,-6.29238 0.52032,-0.78047 0.73816,-1.73647 1.25848,-2.51695 0.98723,-1.48084 2.70757,-2.35162 3.77542,-3.77542 0.91526,-1.22034 2.28622,-5.13872 2.51695,-6.29237 0.16454,-0.82269 -0.13793,-1.68939 0,-2.51695 0.28434,-1.70608 0.71152,-3.39305 1.25847,-5.0339 0.29663,-0.88988 1.03098,-1.60694 1.25848,-2.51695 0.20348,-0.81393 0,-1.67797 0,-2.51695 0,-2.93644 0,-5.87288 0,-8.80932 0,-2.516949 0,-5.033899 0,-7.550848 0,-0.838983 0.16454,-1.69426 0,-2.51695 -0.52032,-2.601576 -2.08078,-4.933846 -2.51695,-7.550845 -0.20689,-1.241354 0.39796,-2.581532 0,-3.775425 -0.4783,-1.434883 -1.84054,-2.422604 -2.51695,-3.775424 -0.59325,-1.1865 -0.76581,-2.543754 -1.25847,-3.775424 -0.69674,-1.741842 -1.67797,-3.355933 -2.51695,-5.033899 -0.83899,-1.677964 -1.47632,-3.472952 -2.51695,-5.033896 -0.65815,-0.987229 -1.67797,-1.677967 -2.51695,-2.51695 -1.25848,-1.258474 -2.51695,-2.516949 -3.77543,-3.775424 -0.41949,-0.419491 -0.92939,-0.76486 -1.25847,-1.258475 -0.52032,-0.780473 -0.69567,-1.766541 -1.25847,-2.516949 -2.35187,-3.135815 -2.11059,-2.021438 -5.0339,-3.775424 -0.12069,-0.07241 -7.51666,-5.019247 -7.55085,-5.033897 -1.58976,-0.681325 -3.44414,-0.577148 -5.0339,-1.258474 -4.98472,-2.13631 -2.24797,-3.017872 -7.55085,-3.775425 -1.6611,-0.237299 -3.37876,0.275855 -5.03389,0 -0.92525,-0.154207 -1.60695,-1.030972 -2.51695,-1.258474 -0.81394,-0.203483 -1.67797,0 -2.51695,0 -2.93644,0 -5.87288,0 -8.80932,0 -2.09746,0 -4.19492,0 -6.29238,0 -1.25847,0 -2.54138,-0.246806 -3.77542,0 -0.9198,0.183959 -1.60695,1.030972 -2.51695,1.258474 -0.81393,0.203484 -1.70302,-0.203483 -2.51695,0 -0.91,0.227502 -1.62707,0.961851 -2.51695,1.258475 -0.39796,0.132654 -0.86051,-0.132654 -1.25847,0 -1.77975,0.593252 -3.25415,1.923698 -5.0339,2.51695 -0.39797,0.132654 -0.86051,-0.132657 -1.25848,0 -0.88987,0.296624 -1.62707,0.961847 -2.51695,1.258474 -0.39796,0.132655 -0.86051,-0.132656 -1.25847,0 -0.88988,0.296625 -1.62707,0.961848 -2.51695,1.258475 -0.39796,0.132654 -0.86051,-0.132657 -1.25847,0 -0.88988,0.296625 -1.62708,0.961848 -2.51695,1.258475 -0.79593,0.265308 -1.76654,-0.375206 -2.51695,0 -0.53062,0.265308 -0.72786,0.993164 -1.25848,1.258475 -0.7504,0.375203 -1.92369,-0.593252 -2.51695,0 -0.29662,0.296624 0.18761,0.883269 0,1.258472 -0.26531,0.530622 -0.83898,0.838983 -1.25847,1.258474 -0.83898,0.838984 -1.77575,1.590448 -2.51695,2.51695 -1.18185,1.477312 -2.99122,4.331861 -3.77542,6.292374 -2.42393,6.059828 -0.13031,1.649388 -2.51695,8.80932 -0.59325,1.779754 -2.06195,3.213888 -2.51695,5.033899 -0.20348,0.813932 0.26531,1.721019 0,2.516949 -0.1876,0.562806 -0.99317,0.727856 -1.25847,1.258475 -0.18761,0.375206 0.13265,0.86051 0,1.258475 -0.29663,0.889876 -0.961855,1.627074 -1.258479,2.516949 -0.132654,0.397965 0.187603,0.88327 0,1.258475 -0.265311,0.530619 -0.993167,0.727856 -1.258475,1.258475 -0.187603,0.375203 0,0.838983 0,1.258475 0,0.838983 0.265308,1.721019 0,2.516946 -0.187603,0.562809 -0.993166,0.727856 -1.258475,1.258475 -0.187603,0.375206 0.187603,0.883272 0,1.258475 -0.265311,0.530619 -1.070872,0.695669 -1.258474,1.258475 -0.265311,0.79593 0,1.677966 0,2.516949 0,0.419492 0.187602,0.883269 0,1.258475 -0.265311,0.530619 -0.993164,0.727855 -1.258475,1.258475 -0.268737,0.537474 0,5.794883 0,6.292373 0,1.21723 0.186624,7.1776 0,7.55085 -0.265308,0.53062 -1.070872,0.69566 -1.258475,1.25847 -0.265308,0.79593 0.203483,1.70302 0,2.51695 -0.227502,0.91001 -1.030973,1.60694 -1.258475,2.51695 -0.255846,1.02339 0,6.23343 0,7.55085 0,1.25847 0,2.51694 0,3.77542 0,0.41949 0,0.83898 0,1.25847 0,0.4195 -0.374271,1.44793 0,1.25848 1.643981,-0.83217 2.881355,-2.29749 4.322033,-3.44624"
     id="path3960"
     inkscape:connector-curvature="0" />
  <path
     style="fill:none;stroke:#000000;stroke-width:0.26458332px;stroke-linecap:butt;stroke-linejoin:miter;stroke-opacity:1"
     d="m 55.923108,76.84903 c -1.022392,-3.802785 -2.220137,-7.56271 -3.067177,-11.408352 -0.180467,-0.819346 0,-1.677966 0,-2.516949 0,-3.355933 0,-6.711865 0,-10.067798 0,-0.838983 0.164539,-1.694257 0,-2.51695 -0.260157,-1.300786 -0.936739,-2.48848 -1.258475,-3.775421 -0.10174,-0.406969 0,-0.838983 0,-1.258475 0,-1.677966 0,-3.355932 0,-5.033899 0,-3.775424 0,-7.550848 0,-11.326272 0,-2.097456 0,-4.194914 0,-6.292372 0,-0.419492 0,-0.838983 0,-1.258474 0,-0.419492 -0.187603,-0.88327 0,-1.258475 0.265311,-0.530619 1.070872,-0.695668 1.258475,-1.258475 0.327956,-0.983866 -0.346271,-6.858306 0,-7.550847 0.265311,-0.530619 0.993166,-0.727855 1.258475,-1.258474 0.187602,-0.375205 -0.187603,-0.8832704 0,-1.2584752 0.265311,-0.5306195 0.993166,-0.727855 1.258474,-1.2584745 0.187603,-0.3752045 -0.296624,-0.9618493 0,-1.2584744 0.296625,-0.2966255 0.961851,0.2966251 1.258475,0 0.296624,-0.2966255 -0.296624,-0.9618493 0,-1.2584748 0.296624,-0.2966251 0.96185,0.2966255 1.258475,0 0.296624,-0.2966251 -0.296625,-0.961849 0,-1.2584744 0.296624,-0.2966252 0.96185,0.2966254 1.258475,0 0.593251,-0.5932506 -0.593252,-1.9236985 0,-2.5169492 0.296624,-0.29662525 0.838983,0 1.258474,0 0.419492,0 0.838983,0 1.258475,0"
     id="path3962"
     inkscape:connector-curvature="0" />
  <path
     style="fill:#550000;stroke-width:4.75643921"
     d="m 465.80498,638.29185 c -1.42252,-2.30169 11.91122,-12.55752 29.63055,-22.79076 17.71932,-10.23327 47.78477,-27.60362 66.81211,-38.60079 19.02735,-10.99717 33.43857,-21.86628 32.02494,-24.15358 -1.41363,-2.2873 12.4347,-12.3306 30.77406,-22.31846 18.33935,-9.98786 33.3586,-19.84035 33.3761,-21.89442 0.0176,-2.05408 -3.71388,-1.65504 -8.29195,0.88673 -4.57807,2.54178 -51.13172,29.12786 -103.45256,59.0802 -52.32083,29.95233 -95.59791,54.0555 -96.17129,53.56254 -0.57338,-0.49291 0.16733,-8.35161 1.64604,-17.46376 2.57972,-15.89697 6.52483,-18.75203 97.46948,-70.53842 52.12952,-29.68397 96.03764,-56.00424 97.5736,-58.48947 3.97416,-6.43034 -31.88397,12.53121 -110.03071,58.18353 -8.60843,5.02894 -17.8573,7.01284 -23.3135,5.00079 -7.68494,-2.83393 -5.89784,-5.14837 11.8911,-15.39992 11.5144,-6.63562 36.71469,-21.18873 56.00063,-32.34024 20.7535,-12.00009 32.84888,-21.64533 29.63479,-23.63175 -3.28545,-2.03052 3.53056,-8.34373 17.25549,-15.9826 12.47732,-6.9445 19.47544,-12.68938 15.55138,-12.76642 -3.92406,-0.0771 1.42693,-5.41331 11.8911,-11.85836 10.46416,-6.44506 17.07249,-11.78509 14.68515,-11.86673 -4.00149,-0.13684 -30.94255,14.34932 -155.71415,83.72731 -25.24512,14.03729 -49.32459,25.52235 -53.50994,25.52235 -15.59243,0 -6.62263,-9.66158 26.87445,-28.94709 57.1277,-32.89053 121.68087,-76.26874 124.52368,-83.67698 1.67973,-4.37732 -7.13932,-1.34925 -23.75118,8.1551 -42.30967,24.20713 -37.90757,15.73987 12.09887,-23.27171 l 11.79703,-9.20323 -15.36436,1.78891 c -8.4504,0.9839 -15.36436,0.86527 -15.36436,-0.26363 0,-1.1289 14.02323,-9.89478 31.16273,-19.47973 17.1395,-9.58496 30.14992,-18.44 28.91204,-19.67788 -1.23788,-1.23788 -12.1472,3.54906 -24.24293,10.63762 -12.09573,7.08858 -23.16466,11.7159 -24.59762,10.28294 -1.43296,-1.43296 4.21363,-6.13162 12.54797,-10.44148 8.33435,-4.30986 14.10059,-8.88887 12.81388,-10.17559 -1.28672,-1.28671 -13.96937,4.22402 -28.18367,12.24607 -14.2143,8.02205 -26.94549,13.48425 -28.29154,12.1382 -1.34604,-1.34605 -26.25686,11.391 -55.35737,28.30455 -29.10051,16.91356 -54.14856,28.74792 -55.66233,26.29858 -2.53317,-4.09876 24.02296,-23.56709 32.20272,-23.60786 1.96203,-0.01 3.56733,-2.29513 3.56733,-5.07856 0,-2.78342 -8.53765,-0.26236 -18.97255,5.60239 -21.03154,11.82039 -22.19179,11.58505 -24.55942,-4.98158 -1.4088,-9.85753 2.9323,-14.25382 29.26265,-29.63463 17.00427,-9.93301 27.70626,-18.19163 23.7822,-18.35249 -3.92406,-0.16086 -0.52845,-3.94846 7.5458,-8.41688 19.84146,-10.98058 48.36796,-34.1666 42.1168,-34.23207 -2.77005,-0.029 -9.19124,3.08978 -14.26932,6.93065 -10.68114,8.07881 -18.26666,9.45039 -13.9893,2.52948 4.65931,-7.53891 -0.29752,-5.73644 -26.16042,9.51288 -13.31045,7.84813 -25.38152,14.26932 -26.82459,14.26932 -1.44307,0 -8.9635,4.51429 -16.71207,10.03176 -7.74858,5.51748 -14.71753,9.26317 -15.48656,8.32377 -2.74491,-3.35299 -12.32337,-34.14666 -12.32337,-39.61823 0,-3.06562 18.18668,-15.78216 40.41486,-28.25899 22.22816,-12.47683 41.72733,-24.80878 43.33146,-27.40433 3.23014,-5.22647 -14.47332,3.39184 -50.01593,24.34852 -32.5194,19.17413 -39.69605,19.46731 -54.21494,2.21486 l -12.36189,-14.68935 56.90031,-32.21676 c 31.29516,-17.71921 58.34433,-34.55322 60.10924,-37.40892 2.90696,-4.70355 -17.04249,5.76125 -59.1918,31.05 -8.50214,5.10111 -15.45843,7.03509 -15.45843,4.29773 0,-2.73736 4.46411,-7.36615 9.92025,-10.28619 5.45614,-2.92003 8.83477,-6.39463 7.50807,-7.72133 -1.32671,-1.32671 -12.21201,3.33089 -24.18957,10.35021 -23.08209,13.527 -26.36391,10.89602 -15.6173,-12.52015 11.90144,-25.93247 29.65966,-40.88835 58.45848,-49.2334 15.4726,-4.4835 37.76379,-12.76424 49.53598,-18.40163 18.47219,-8.84585 29.54783,-10.22605 80.85947,-10.07641 51.9616,0.15153 61.97953,1.50043 79.48087,10.70198 11.01396,5.79073 22.10882,10.5286 24.65526,10.5286 7.20985,0 52.82636,29.45661 52.82636,34.11233 0,2.28345 8.32321,13.2006 18.49601,24.26033 18.02531,19.59685 43.29943,67.50776 50.75386,96.21162 5.63842,21.71118 4.45724,111.16946 -1.81417,137.398 -12.46074,52.11374 -64.20745,91.71231 -145.94087,111.67956 -20.91518,5.10952 -47.39338,12.69376 -58.84047,16.85387 -24.46259,8.89022 -25.8651,9.06923 -21.99507,2.8074 4.18776,-6.77595 -3.38607,-5.88006 -14.4001,1.70335 -5.16015,3.55289 -17.94369,7.99875 -28.40786,9.87969 -10.46416,1.88094 -33.4297,11.6828 -51.03452,21.7819 -17.60483,10.09911 -33.17265,16.47883 -34.59517,14.17714 z"
     id="path3964"
     inkscape:connector-curvature="0"
     transform="scale(0.26458333)" />
  <path
     style="fill:#550000;stroke-width:4.75643921"
     d="m 358.87171,454.00214 c 0.11441,-13.07469 5.27377,-18.40008 35.40448,-36.54385 29.33124,-17.66236 45.38216,-21.43282 45.38216,-10.66055 0,8.19471 -15.62831,22.37438 -44.92829,40.76375 -26.71747,16.76852 -35.96325,18.42919 -35.85835,6.44065 z"
     id="path3966"
     inkscape:connector-curvature="0"
     transform="scale(0.26458333)" />
  <path
     style="fill:#550000;stroke-width:4.75643921"
     d=""
     id="path3968"
     inkscape:connector-curvature="0"
     transform="scale(0.26458333)" />
  <path
     style="fill:#550000;stroke-width:4.75643921"
     d="m 491.97918,426.77475 c 0,-3.76364 29.24858,-17.64521 31.80089,-15.0929 1.30802,1.30802 -4.13559,5.74664 -12.09691,9.8636 -15.09086,7.80379 -19.70398,9.02808 -19.70398,5.2293 z"
     id="path3970"
     inkscape:connector-curvature="0"
     transform="scale(0.26458333)" />
  <path
     style="fill:#550000;stroke-width:4.75643921"
     d=""
     id="path3972"
     inkscape:connector-curvature="0"
     transform="scale(0.26458333)" />
  <path
     style="fill:#550000;stroke-width:4.75643921"
     d=""
     id="path3974"
     inkscape:connector-curvature="0"
     transform="scale(0.26458333)" />
  <path
     style="fill:#550000;stroke-width:4.75643921"
     d=""
     id="path3976"
     inkscape:connector-curvature="0"
     transform="scale(0.26458333)" />
  <path
     style="fill:#550000;stroke-width:4.75643921"
     d="m 485.64495,658.93309 c -4.51008,-4.51009 83.02346,-53.34746 102.15455,-56.99484 20.86622,-3.97818 19.9077,-3.23027 -39.68157,30.9623 -51.44053,29.51679 -56.76854,31.73697 -62.47298,26.03254 z"
     id="path3978"
     inkscape:connector-curvature="0"
     transform="scale(0.26458333)" />
  <path
     style="fill:#550000;stroke-width:4.75643921"
     d=""
     id="path3980"
     inkscape:connector-curvature="0"
     transform="scale(0.26458333)" />
  <path
     style="fill:#550000;stroke-width:4.75643921"
     d=""
     id="path3982"
     inkscape:connector-curvature="0"
     transform="scale(0.26458333)" />
  <path
     style="fill:#550000;stroke-width:4.75643921"
     d=""
     id="path3984"
     inkscape:connector-curvature="0"
     transform="scale(0.26458333)" />
  <path
     style="fill:#550000;stroke-width:4.75643921"
     d=""
     id="path3986"
     inkscape:connector-curvature="0"
     transform="scale(0.26458333)" />
  <path
     style="fill:#550000;stroke-width:4.75643921"
     d="m 239.92766,743.07657 c -4.58056,-2.89303 -5.42337,-5.97778 -2.37822,-8.70445 9.56698,-8.56645 141.72286,-81.92646 143.81647,-79.83284 4.48132,4.48131 -4.6345,12.27057 -31.90674,27.26356 -15.46486,8.50185 -27.15625,17.01393 -25.98087,18.91573 1.59357,2.57846 -53.0297,36.34395 -73.97413,45.72726 -1.36489,0.61149 -5.67432,-0.90468 -9.57651,-3.36926 z"
     id="path3988"
     inkscape:connector-curvature="0"
     transform="scale(0.26458333)" />
  <path
     style="fill:#ffdd55;stroke:#000000;stroke-width:0.26458332px;stroke-linecap:butt;stroke-linejoin:miter;stroke-opacity:1"
     d="m 117.03813,229.04237 c 61.91131,-66.48938 84.55607,94.00906 17.61865,-5.0339 -66.93742,-99.04296 -47.015378,-18.2283 -47.015378,-18.2283 l 84.769608,57.24101 -0.25605,-69.51652 -48.91073,-24.62328 -30.012875,4.44609 -48.137532,-6.26248 -21.182806,-21.08194 59.564635,-28.37186 34.082708,-6.3514 -1.78466,33.97524 42.12952,1.38262 7.26304,-27.84048 -16.71618,-8.42486 -84.699449,106.86298 z"
     id="path3990"
     inkscape:connector-curvature="0" />
  <path
     style="fill:#ffdd55;stroke-width:4.75643921"
     d="m 254.2134,640.17332 -83.18149,-11.33173 -37.89151,-37.8915 c -20.84033,-20.84033 -36.918593,-38.61271 -35.729483,-39.49418 1.189109,-0.88148 50.723773,-24.60805 110.077033,-52.72571 100.98633,-47.84068 111.81466,-51.87207 168.65222,-62.78942 33.40546,-6.41652 61.68854,-11.66639 62.85127,-11.66639 1.16274,0 0.66394,28.89537 -1.10845,64.21193 -2.83348,56.45992 -2.32402,64.21193 4.22003,64.21193 6.87621,0 -33.30822,56.61266 -62.86216,88.56152 -12.76495,13.79935 -15.9609,13.77159 -125.02746,-1.08645 z"
     id="path3992"
     inkscape:connector-curvature="0"
     transform="scale(0.26458333)" />
  <path
     style="fill:#ffdd55;stroke-width:4.75643921"
     d="M 254.27358,640.27403 171.15225,628.96194 133.20058,591.01027 C 112.32715,570.13684 96.221807,552.23389 97.410917,551.22591 98.600026,550.21794 148.05156,526.50734 207.30323,498.53569 307.96375,451.01564 319.0315,446.9102 375.95545,435.97626 c 33.50706,-6.43603 61.87827,-11.70187 63.04714,-11.70187 1.16887,0 0.78984,27.91746 -0.84228,62.03881 -2.47907,51.82778 -1.82859,62.47584 3.95211,64.6941 5.16944,1.98371 -0.36824,12.07613 -21.89435,39.90228 -44.14513,57.06511 -49.27893,61.74299 -67.13763,61.17522 -8.62704,-0.27426 -53.09013,-5.58912 -98.80686,-11.81077 z"
     id="path3994"
     inkscape:connector-curvature="0"
     transform="scale(0.26458333)" />
  <path
     style="fill:#ffdd55;stroke-width:4.75643921"
     d=""
     id="path3996"
     inkscape:connector-curvature="0"
     transform="scale(0.26458333)" />
  <path
     style="fill:#ffdd55;stroke-width:4.75643921"
     d=""
     id="path3998"
     inkscape:connector-curvature="0"
     transform="scale(0.26458333)" />
  <path
     style="fill:#ffdd55;stroke-width:4.75643921"
     d="m 514.23616,548.1907 -51.46784,-2.62711 49.32763,-62.38641 49.32762,-62.38641 28.30062,14.202 c 15.56535,7.8111 28.95337,14.77702 29.75117,15.47982 0.79779,0.70279 -4.52342,23.99108 -11.82492,51.75174 l -13.27545,50.47392 -14.3355,-0.94022 c -7.88452,-0.51712 -37.49602,-2.12242 -65.80333,-3.56733 z"
     id="path4000"
     inkscape:connector-curvature="0"
     transform="scale(0.26458333)" />
  <path
     style="fill:#ffdd55;stroke-width:4.75643921"
     d="m 468.19698,414.76151 c 9.31488,-6.01974 15.6115,-6.01974 11.8911,0 -1.6168,2.61604 -6.55901,4.72366 -10.9827,4.68361 -6.93144,-0.0628 -7.05699,-0.71009 -0.9084,-4.68361 z"
     id="path4002"
     inkscape:connector-curvature="0"
     transform="scale(0.26458333)" />
  <path
     style="fill:#ffdd55;stroke-width:4.75643921"
     d=""
     id="path4004"
     inkscape:connector-curvature="0"
     transform="scale(0.26458333)" />
  <path
     style="fill:#ffdd55;stroke-width:4.75643921"
     d="m 208.97104,191.20886 c 1.6168,-2.61604 5.08004,-4.75644 7.69608,-4.75644 2.61604,0 3.4336,2.1404 1.8168,4.75644 -1.6168,2.61604 -5.08004,4.75644 -7.69608,4.75644 -2.61604,0 -3.4336,-2.1404 -1.8168,-4.75644 z"
     id="path4006"
     inkscape:connector-curvature="0"
     transform="scale(0.26458333)" />
  <path
     style="fill:#ffdd55;stroke-width:4.75643921"
     d="m 509.43864,548.20976 -46.75248,-2.64617 49.27138,-62.43562 49.27139,-62.43562 28.39794,14.25121 c 15.61888,7.83817 29.01758,14.79312 29.77491,15.45545 0.75733,0.66233 -4.32273,23.95062 -11.28903,51.75174 l -12.666,50.5475 -19.62782,-0.92116 c -10.7953,-0.50664 -40.66643,-2.11194 -66.38029,-3.56733 z"
     id="path4008"
     inkscape:connector-curvature="0"
     transform="scale(0.26458333)" />
  <path
     style="fill:#ffdd55;stroke-width:4.75643921"
     d=""
     id="path4010"
     inkscape:connector-curvature="0"
     transform="scale(0.26458333)" />
  <path
     style="fill:#ffdd55;stroke-width:4.75643921"
     d=""
     id="path4014"
     inkscape:connector-curvature="0"
     transform="scale(0.26458333)" />
  <path
     style="fill:#ffdd55;stroke-width:4.75643921"
     d=""
     id="path4016"
     inkscape:connector-curvature="0"
     transform="scale(0.26458333)" />
  <path
     style="fill:#ffdd55;stroke-width:4.75643921"
     d=""
     id="path4018"
     inkscape:connector-curvature="0"
     transform="scale(0.26458333)" />
  <path
     style="fill:#ffdd55;stroke-width:4.75643921"
     d=""
     id="path4020"
     inkscape:connector-curvature="0"
     transform="scale(0.26458333)" />
</svg>
