<?xml version="1.0" encoding="UTF-8" standalone="no"?>
<svg
   xmlns:dc="http://purl.org/dc/elements/1.1/"
   xmlns:cc="http://creativecommons.org/ns#"
   xmlns:rdf="http://www.w3.org/1999/02/22-rdf-syntax-ns#"
   xmlns:svg="http://www.w3.org/2000/svg"
   xmlns="http://www.w3.org/2000/svg"
   xmlns:xlink="http://www.w3.org/1999/xlink"
   id="svg8"
   version="1.1"
   viewBox="0 0 210 297"
   height="297mm"
   width="210mm">
  <defs
     id="defs2" />
  <metadata
     id="metadata5">
    <rdf:RDF>
      <cc:Work
         rdf:about="">
        <dc:format>image/svg+xml</dc:format>
        <dc:type
           rdf:resource="http://purl.org/dc/dcmitype/StillImage" />
        <dc:title></dc:title>
      </cc:Work>
    </rdf:RDF>
  </metadata>
  <g
     id="layer1">
    <path
       id="path3721"
       d="m 39.309524,106.5 c 0,4.03174 0,8.06349 0,12.09524 0,1.25992 -0.114067,2.52501 0,3.77976 0.138768,1.52646 0.617183,3.00925 0.755951,4.53571 0.114067,1.25475 -0.125367,2.5261 0,3.77977 0.12785,1.27849 0.614064,2.50274 0.755952,3.77976 0.11131,1.00177 0,2.01587 0,3.02381 0,1.76389 0,3.52777 0,5.29166 0,2.01588 0,4.03175 0,6.04762 0,0.34045 -0.11503,2.0378 0,2.26786 0.159369,0.31874 0.596585,0.43721 0.755954,0.75595 0.112689,0.22538 -0.112691,0.53057 0,0.75595 0.159369,0.31874 0.596583,0.43722 0.755952,0.75596 0.112691,0.22538 -0.112692,0.53057 0,0.75595 0.318738,0.63747 1.193167,0.87443 1.511906,1.5119 0.112688,0.22539 -0.112692,0.53057 0,0.75595 0.159366,0.31874 0.596582,0.43722 0.755951,0.75596 0.22538,0.45076 -0.225382,1.06114 0,1.5119 0.159369,0.31874 0.596583,0.43722 0.755952,0.75596 0.112691,0.22538 -0.178178,0.57777 0,0.75595 0.178181,0.17818 0.503968,0 0.755952,0 0.50397,0 1.079756,0.25929 1.511905,0 0.916726,-0.55004 1.511906,-1.51191 2.267858,-2.26786 1.007935,-1.00794 2.133346,-1.91073 3.023809,-3.02381 2.988903,-3.73613 3.421232,-5.74189 6.047618,-9.82738 2.344346,-3.64676 5.09183,-7.01889 7.559524,-10.58333 2.068605,-2.98799 3.910105,-6.13235 6.047619,-9.07143 0.949007,-1.30489 2.098537,-2.45795 3.023811,-3.77976 0.842592,-1.20371 1.45283,-2.55723 2.267855,-3.77977 0.698878,-1.04831 1.600102,-1.9554 2.267858,-3.0238 0.597259,-0.95562 1.007938,-2.01588 1.511905,-3.02381 0.251984,-0.50397 0.417881,-1.06115 0.755952,-1.51191 0.427633,-0.57017 1.084273,-0.94173 1.511906,-1.51191 0.338071,-0.45076 0.577771,-0.97736 0.755952,-1.5119 0.07968,-0.23905 -0.178181,-0.57777 0,-0.75595 0.178181,-0.17818 0.530571,0.11269 0.755951,0 0.637477,-0.31874 0.87443,-1.19317 1.511906,-1.51191 0.789125,-0.39456 0.722778,0.39457 1.511903,0 0.318739,-0.15937 0.399595,-0.75595 0.755955,-0.75595 0.356359,0 0.503967,0.50397 0.755951,0.75595 0.755952,0.75596 1.870811,1.27525 2.267858,2.26786 0.661741,1.65436 0.485018,3.53059 0.755951,5.29167 0.233066,1.51493 0.503968,3.02381 0.755952,4.53571 0.544875,3.26924 0.967033,6.55814 1.511906,9.82738 0.211233,1.26739 0.639625,2.50017 0.755951,3.77977 0.136883,1.50569 -0.136879,3.03001 0,4.53571 0.116327,1.27959 0.628103,2.50127 0.755955,3.77976 0.125365,1.25367 -0.125368,2.52609 0,3.77976 0.127849,1.2785 0.628102,2.50127 0.755951,3.77977 0,11.25517 -0.305575,-2.75019 0.755952,6.80357 0.139136,1.25221 -0.156274,2.52957 0,3.77976 0.09884,0.79069 0.503968,1.5119 0.755952,2.26786 0.251986,0.75595 0.50397,1.5119 0.755954,2.26785 0.503966,1.51191 0.920026,3.05602 1.511906,4.53572 0.20926,0.52315 0.61929,0.96527 0.75595,1.5119 0.12223,0.48892 -0.22538,1.06114 0,1.5119 0.31874,0.63748 1.08427,0.94174 1.5119,1.51191 0.33808,0.45076 0.44341,1.04308 0.75596,1.5119 0.19767,0.29651 0.55828,0.45945 0.75595,0.75596 0.31255,0.46882 0.44341,1.04308 0.75595,1.5119 0.45877,0.68816 1.93284,1.59783 2.26786,2.26786 0.52136,1.04273 -0.9155,0.67618 0.75595,1.5119 0.22538,0.11269 0.50397,0 0.75595,0 0.50397,0 1.00794,0 1.51191,0 0.25198,0 0.50397,0 0.75595,0 0.25198,0 0.53057,0.11269 0.75595,0 0.31874,-0.15936 0.50397,-0.50397 0.75596,-0.75595 0.25198,-0.25198 0.55827,-0.45944 0.75595,-0.75595 3.41903,-5.12854 2.27868,-3.83391 3.77976,-11.33929 1.90725,-9.53625 1.5119,-4.98978 1.5119,-13.60714 0,-6.80357 0,-13.60714 0,-20.41071 0,-0.27762 -0.0304,-2.99339 0,-3.02381 0.17819,-0.17818 0.50397,0 0.75596,0 0.50397,0 1.00793,0 1.5119,0 1.14968,0 0.97644,0.25198 0.75595,-1.51191 -0.47301,-3.78412 -1.03445,-6.12716 -2.26785,-9.82738 -0.68083,-2.04247 -1.62569,-3.99267 -2.26786,-6.04762 -0.61979,-1.98332 -0.92559,-4.05414 -1.5119,-6.04762 -0.67453,-2.29339 -1.55483,-4.52185 -2.26786,-6.803568 -1.43418,-4.589357 -2.57488,-9.195271 -4.53572,-13.607143 -0.70418,-1.584399 -1.8656,-3.901813 -3.02381,-5.291666 -0.6844,-0.821288 -1.5119,-1.511904 -2.26785,-2.267858 -1.00794,-1.007935 -1.79255,-2.305571 -3.02381,-3.023809 -1.859677,-1.08481 -3.982151,-1.660366 -6.047621,-2.267857 -2.228779,-0.655521 -4.535715,-1.007936 -6.803573,-1.511904 -3.854362,-0.856525 -8.099713,-1.982462 -12.095236,-2.267857 -1.759408,-0.125672 -3.527777,0 -5.291667,0 -1.763889,0 -3.527777,0 -5.291666,0 -5.196901,0 -5.87144,-0.331407 -10.583334,0.755952 -3.168303,0.731146 -6.727232,1.990426 -9.827381,3.023809 -1.511903,0.50397 -3.084875,0.852432 -4.535715,1.511905 -1.337606,0.608005 -2.519841,1.511906 -3.779761,2.267858 -4.19962,2.519773 -8.435371,5.021596 -12.095238,8.315476 -6.448732,5.80386 -1.453397,1.55303 -6.047619,6.803572 -7.278854,7.278852 0.06948,-0.464822 -4.535714,5.291667 -0.890464,1.113078 -2.133346,1.910728 -3.023809,3.023809 -0.567562,0.709451 -0.944344,1.558404 -1.5119052,2.267854 -0.4452318,0.55654 -1.0842736,0.94173 -1.5119048,1.51191 -0.3380722,0.45076 -0.503968,1.00793 -0.7559522,1.5119 -0.2519841,0.50397 -0.6192948,0.96528 -0.7559524,1.51191 -0.1222303,0.48892 0.1222301,1.02298 0,1.5119 -0.1366575,0.54663 -0.7559524,0.94845 -0.7559524,1.5119 0,0.56346 0.6192949,0.96528 0.7559524,1.51191 0.2444605,0.97784 -0.1976726,2.03545 0,3.02381 0.3588832,1.79442 1.0942508,3.12739 2.267857,4.53571 1.2770606,1.53248 4.6502796,4.43177 6.0476186,5.29167 1.91948,1.18122 4.031746,2.01588 6.047619,3.02381 9.545363,4.77268 5.865506,3.3782 16.630952,6.80357 0.328509,0.10453 11.297446,3.42121 12.851191,3.77976 1.493506,0.34466 3.056964,0.35266 4.535714,0.75596 1.309161,0.35704 2.480014,1.12198 3.779761,1.5119 1.230686,0.36921 2.560826,0.34964 3.779764,0.75595 1.069078,0.35636 1.988018,1.068 3.023809,1.51191 3.955314,1.69513 0.550508,0.0917 4.535715,0.75595 0.786,0.131 1.481854,0.62495 2.267855,0.75595 1.023995,0.17067 4.039899,0 5.291666,0 2.015874,0 4.031747,0 6.047621,0 0.755952,0 1.519502,0.10691 2.267857,0 2.05703,-0.29386 4.019185,-1.06114 6.047619,-1.5119 1.254275,-0.27873 2.525485,-0.47723 3.77976,-0.75596 1.014217,-0.22538 1.991207,-0.64121 3.02381,-0.75595 1.25221,-0.13913 2.52502,0.11407 3.77976,0 1.52647,-0.13877 3.00825,-0.62866 4.53572,-0.75595 1.50668,-0.12556 3.02381,0 4.53571,0 1.25992,0 2.51984,0 3.77976,0 1.51191,0 3.03132,-0.15044 4.53572,0 1.0338,0.10338 1.99287,0.62709 3.02381,0.75595 1.00015,0.12502 2.02958,-0.1657 3.02381,0 1.11157,0.18527 1.93054,1.23859 3.02381,1.51191 0.48892,0.12223 1.03379,-0.15937 1.5119,0 0.33807,0.11269 0.43722,0.59658 0.75595,0.75595 0.22538,0.11269 0.53057,-0.11269 0.75595,0 0.31874,0.15937 0.43722,0.59658 0.75596,0.75595 0.19545,0.0977 3.99989,0 4.53571,0"
       style="fill:none;stroke:#000000;stroke-width:0.26458332px;stroke-linecap:butt;stroke-linejoin:miter;stroke-opacity:1" />
    <path
       id="path3723"
       d="M 123.97619,209.30952 61.988093,244.83928"
       style="fill:none;stroke:#000000;stroke-width:0.26458332px;stroke-linecap:butt;stroke-linejoin:miter;stroke-opacity:1" />
    <use
       transform="translate(-27.676944,-111.46577)"
       height="100%"
       width="100%"
       y="0"
       x="0"
       xlink:href="#path3723"
       id="use3725" />
    <use
       transform="translate(-11.881691,-90.278975)"
       height="100%"
       width="100%"
       y="0"
       x="0"
       xlink:href="#path3723"
       id="use3727" />
    <use
       transform="translate(-16.89427,-77.774285)"
       height="100%"
       width="100%"
       y="0"
       x="0"
       xlink:href="#path3723"
       id="use3729" />
    <use
       transform="translate(-3.3247025,-90.035644)"
       height="100%"
       width="100%"
       y="0"
       x="0"
       xlink:href="#path3723"
       id="use3731" />
    <use
       transform="translate(-43.036848,-82.884109)"
       height="100%"
       width="100%"
       y="0"
       x="0"
       xlink:href="#path3723"
       id="use3733" />
    <use
       transform="translate(-42.828625,-71.2196)"
       height="100%"
       width="100%"
       y="0"
       x="0"
       xlink:href="#path3723"
       id="use3735" />
    <use
       transform="translate(-39.994591,-52.923429)"
       height="100%"
       width="100%"
       y="0"
       x="0"
       xlink:href="#path3723"
       id="use3737" />
    <use
       transform="translate(-14.474202,-42.835225)"
       height="100%"
       width="100%"
       y="0"
       x="0"
       xlink:href="#path3723"
       id="use3739" />
    <use
       transform="translate(-15.466257,-43.167903)"
       height="100%"
       width="100%"
       y="0"
       x="0"
       xlink:href="#path3723"
       id="use3741" />
    <use
       transform="translate(-30.744834,-35.982049)"
       height="100%"
       width="100%"
       y="0"
       x="0"
       xlink:href="#path3723"
       id="use3743" />
    <use
       transform="translate(-10.017199,-28.102037)"
       height="100%"
       width="100%"
       y="0"
       x="0"
       xlink:href="#path3723"
       id="use3745" />
    <use
       transform="translate(-15.912092,-34.909555)"
       height="100%"
       width="100%"
       y="0"
       x="0"
       xlink:href="#path3723"
       id="use3747" />
    <use
       transform="translate(-14.288166,-49.266132)"
       height="100%"
       width="100%"
       y="0"
       x="0"
       xlink:href="#path3723"
       id="use3749" />
    <use
       transform="translate(17.451929,-48.481122)"
       height="100%"
       width="100%"
       y="0"
       x="0"
       xlink:href="#path3723"
       id="use3751" />
    <use
       transform="translate(-27.941026,-39.354548)"
       height="100%"
       width="100%"
       y="0"
       x="0"
       xlink:href="#path3723"
       id="use3753" />
    <use
       transform="translate(8.1507309,-21.49403)"
       height="100%"
       width="100%"
       y="0"
       x="0"
       xlink:href="#path3723"
       id="use3755" />
    <use
       transform="translate(-15.942085,-17.736186)"
       height="100%"
       width="100%"
       y="0"
       x="0"
       xlink:href="#path3723"
       id="use3757" />
    <use
       transform="translate(24.683359,-42.008558)"
       height="100%"
       width="100%"
       y="0"
       x="0"
       xlink:href="#path3723"
       id="use3759" />
    <use
       transform="translate(24.056618,-15.372703)"
       height="100%"
       width="100%"
       y="0"
       x="0"
       xlink:href="#path3723"
       id="use3761" />
    <use
       transform="translate(12.164257,-27.259441)"
       height="100%"
       width="100%"
       y="0"
       x="0"
       xlink:href="#path3723"
       id="use3763" />
    <use
       transform="translate(18.913026,-39.241453)"
       height="100%"
       width="100%"
       y="0"
       x="0"
       xlink:href="#path3723"
       id="use3765" />
    <use
       transform="translate(-1.9237969,-19.543181)"
       height="100%"
       width="100%"
       y="0"
       x="0"
       xlink:href="#path3723"
       id="use3767" />
    <use
       transform="translate(4.3212193,-27.171846)"
       height="100%"
       width="100%"
       y="0"
       x="0"
       xlink:href="#path3723"
       id="use3769" />
    <use
       transform="translate(16.205147,-34.855013)"
       height="100%"
       width="100%"
       y="0"
       x="0"
       xlink:href="#path3723"
       id="use3771" />
    <use
       transform="translate(25.653312,-39.059109)"
       height="100%"
       width="100%"
       y="0"
       x="0"
       xlink:href="#path3723"
       id="use3773" />
    <use
       transform="translate(1.7625386,-27.623991)"
       height="100%"
       width="100%"
       y="0"
       x="0"
       xlink:href="#path3723"
       id="use3775" />
    <use
       transform="translate(41.534551,-43.619786)"
       height="100%"
       width="100%"
       y="0"
       x="0"
       xlink:href="#path3723"
       id="use3777" />
    <use
       transform="translate(15.617605,-18.942743)"
       height="100%"
       width="100%"
       y="0"
       x="0"
       xlink:href="#path3723"
       id="use3779" />
    <use
       transform="translate(44.595743,-24.318154)"
       height="100%"
       width="100%"
       y="0"
       x="0"
       xlink:href="#path3723"
       id="use3781" />
    <use
       transform="translate(34.441897,-19.636251)"
       height="100%"
       width="100%"
       y="0"
       x="0"
       xlink:href="#path3723"
       id="use3783" />
    <use
       transform="translate(55.785042,-32.768982)"
       height="100%"
       width="100%"
       y="0"
       x="0"
       xlink:href="#path3723"
       id="use3785" />
    <use
       transform="translate(49.222016,-23.552144)"
       height="100%"
       width="100%"
       y="0"
       x="0"
       xlink:href="#path3723"
       id="use3787" />
    <use
       transform="translate(25.004989,-27.830442)"
       height="100%"
       width="100%"
       y="0"
       x="0"
       xlink:href="#path3723"
       id="use3789" />
    <use
       transform="translate(13.568375,-25.299261)"
       height="100%"
       width="100%"
       y="0"
       x="0"
       xlink:href="#path3723"
       id="use3791" />
    <use
       transform="translate(48.178778,-15.804852)"
       height="100%"
       width="100%"
       y="0"
       x="0"
       xlink:href="#path3723"
       id="use3793" />
    <use
       transform="translate(23.797942,-5.4544326)"
       height="100%"
       width="100%"
       y="0"
       x="0"
       xlink:href="#path3723"
       id="use3795" />
    <use
       transform="translate(45.570525,-21.670859)"
       height="100%"
       width="100%"
       y="0"
       x="0"
       xlink:href="#path3723"
       id="use3797" />
    <use
       transform="translate(47.069414,-55.9503)"
       height="100%"
       width="100%"
       y="0"
       x="0"
       xlink:href="#path3723"
       id="use3799" />
    <use
       transform="translate(33.814991,-38.83642)"
       height="100%"
       width="100%"
       y="0"
       x="0"
       xlink:href="#path3723"
       id="use3801" />
    <use
       transform="translate(54.973253,-46.756524)"
       height="100%"
       width="100%"
       y="0"
       x="0"
       xlink:href="#path3723"
       id="use3803" />
    <use
       transform="translate(58.743453,-29.180782)"
       height="100%"
       width="100%"
       y="0"
       x="0"
       xlink:href="#path3723"
       id="use3805" />
    <use
       transform="translate(37.633337,-30.43859)"
       height="100%"
       width="100%"
       y="0"
       x="0"
       xlink:href="#path3723"
       id="use3807" />
    <use
       transform="translate(34.160231,-54.356708)"
       height="100%"
       width="100%"
       y="0"
       x="0"
       xlink:href="#path3723"
       id="use3809" />
    <use
       transform="translate(34.284871,-32.374473)"
       height="100%"
       width="100%"
       y="0"
       x="0"
       xlink:href="#path3723"
       id="use3811" />
    <use
       transform="translate(26.874833,-49.982977)"
       height="100%"
       width="100%"
       y="0"
       x="0"
       xlink:href="#path3723"
       id="use3813" />
    <use
       transform="translate(61.145891,-52.528928)"
       height="100%"
       width="100%"
       y="0"
       x="0"
       xlink:href="#path3723"
       id="use3815" />
    <use
       transform="translate(37.920572,-84.809311)"
       height="100%"
       width="100%"
       y="0"
       x="0"
       xlink:href="#path3723"
       id="use3817" />
    <use
       transform="translate(22.544239,-89.127293)"
       height="100%"
       width="100%"
       y="0"
       x="0"
       xlink:href="#path3723"
       id="use3819" />
    <use
       transform="translate(11.408139,-91.69825)"
       height="100%"
       width="100%"
       y="0"
       x="0"
       xlink:href="#path3723"
       id="use3821" />
    <use
       transform="translate(23.446885,-59.632563)"
       height="100%"
       width="100%"
       y="0"
       x="0"
       xlink:href="#path3723"
       id="use3823" />
    <use
       transform="translate(43.589856,-81.857618)"
       height="100%"
       width="100%"
       y="0"
       x="0"
       xlink:href="#path3723"
       id="use3825" />
    <use
       transform="translate(28.441034,-93.657219)"
       height="100%"
       width="100%"
       y="0"
       x="0"
       xlink:href="#path3723"
       id="use3827" />
    <use
       transform="translate(20.198938,-91.096453)"
       height="100%"
       width="100%"
       y="0"
       x="0"
       xlink:href="#path3723"
       id="use3829" />
    <use
       transform="translate(37.009017,-106.14918)"
       height="100%"
       width="100%"
       y="0"
       x="0"
       xlink:href="#path3723"
       id="use3831" />
    <use
       transform="translate(24.47389,-98.957208)"
       height="100%"
       width="100%"
       y="0"
       x="0"
       xlink:href="#path3723"
       id="use3833" />
    <use
       transform="translate(23.698653,-92.673683)"
       height="100%"
       width="100%"
       y="0"
       x="0"
       xlink:href="#path3723"
       id="use3835" />
    <use
       transform="translate(46.895602,-93.34692)"
       height="100%"
       width="100%"
       y="0"
       x="0"
       xlink:href="#path3723"
       id="use3837" />
    <use
       transform="translate(25.259028,-110.58723)"
       height="100%"
       width="100%"
       y="0"
       x="0"
       xlink:href="#path3723"
       id="use3839" />
    <use
       transform="translate(41.190074,-90.532351)"
       height="100%"
       width="100%"
       y="0"
       x="0"
       xlink:href="#path3723"
       id="use3841" />
    <use
       transform="translate(17.645214,-96.921611)"
       height="100%"
       width="100%"
       y="0"
       x="0"
       xlink:href="#path3723"
       id="use3843" />
    <use
       transform="translate(25.815652,-84.442078)"
       height="100%"
       width="100%"
       y="0"
       x="0"
       xlink:href="#path3723"
       id="use3845" />
    <use
       transform="translate(28.086988,-101.58303)"
       height="100%"
       width="100%"
       y="0"
       x="0"
       xlink:href="#path3723"
       id="use3847" />
    <use
       transform="translate(-6.4783964,-148.74802)"
       height="100%"
       width="100%"
       y="0"
       x="0"
       xlink:href="#path3723"
       id="use3849" />
    <use
       transform="translate(-42.635722,-148.76425)"
       height="100%"
       width="100%"
       y="0"
       x="0"
       xlink:href="#path3723"
       id="use3851" />
    <use
       transform="translate(-37.598588,-173.24006)"
       height="100%"
       width="100%"
       y="0"
       x="0"
       xlink:href="#path3723"
       id="use3853" />
    <use
       transform="translate(-19.016131,-137.39784)"
       height="100%"
       width="100%"
       y="0"
       x="0"
       xlink:href="#path3723"
       id="use3855" />
    <use
       transform="translate(-32.615955,-180.89721)"
       height="100%"
       width="100%"
       y="0"
       x="0"
       xlink:href="#path3723"
       id="use3857" />
    <use
       transform="translate(-54.452881,-160.80622)"
       height="100%"
       width="100%"
       y="0"
       x="0"
       xlink:href="#path3723"
       id="use3859" />
    <use
       transform="translate(-51.639156,-161.50284)"
       height="100%"
       width="100%"
       y="0"
       x="0"
       xlink:href="#path3723"
       id="use3861" />
    <use
       transform="translate(-24.154966,-187.13671)"
       height="100%"
       width="100%"
       y="0"
       x="0"
       xlink:href="#path3723"
       id="use3863" />
    <use
       transform="translate(-22.694729,-169.08495)"
       height="100%"
       width="100%"
       y="0"
       x="0"
       xlink:href="#path3723"
       id="use3865" />
    <use
       transform="translate(-49.26376,-160.61374)"
       height="100%"
       width="100%"
       y="0"
       x="0"
       xlink:href="#path3723"
       id="use3867" />
    <use
       transform="translate(-20.270878,-207.25063)"
       height="100%"
       width="100%"
       y="0"
       x="0"
       xlink:href="#path3723"
       id="use3869" />
    <use
       transform="translate(-42.92096,-197.58077)"
       height="100%"
       width="100%"
       y="0"
       x="0"
       xlink:href="#path3723"
       id="use3871" />
    <use
       transform="translate(-19.32971,-187.80704)"
       height="100%"
       width="100%"
       y="0"
       x="0"
       xlink:href="#path3723"
       id="use3873" />
    <use
       transform="translate(-43.388961,-179.07291)"
       height="100%"
       width="100%"
       y="0"
       x="0"
       xlink:href="#path3723"
       id="use3875" />
    <use
       transform="translate(-48.713871,-176.11405)"
       height="100%"
       width="100%"
       y="0"
       x="0"
       xlink:href="#path3723"
       id="use3877" />
    <use
       transform="translate(-56.364535,-172.66801)"
       height="100%"
       width="100%"
       y="0"
       x="0"
       xlink:href="#path3723"
       id="use3879" />
    <use
       transform="translate(-12.35656,-179.4294)"
       height="100%"
       width="100%"
       y="0"
       x="0"
       xlink:href="#path3723"
       id="use3881" />
    <use
       transform="translate(-20.742193,-208.89896)"
       height="100%"
       width="100%"
       y="0"
       x="0"
       xlink:href="#path3723"
       id="use3883" />
    <use
       transform="translate(-37.566087,-193.56347)"
       height="100%"
       width="100%"
       y="0"
       x="0"
       xlink:href="#path3723"
       id="use3885" />
    <use
       transform="translate(-54.349681,-184.63757)"
       height="100%"
       width="100%"
       y="0"
       x="0"
       xlink:href="#path3723"
       id="use3887" />
    <use
       transform="translate(-20.544264,-171.72919)"
       height="100%"
       width="100%"
       y="0"
       x="0"
       xlink:href="#path3723"
       id="use3889" />
    <use
       transform="translate(-59.455875,-182.08126)"
       height="100%"
       width="100%"
       y="0"
       x="0"
       xlink:href="#path3723"
       id="use3891" />
    <use
       transform="translate(-35.264353,-168.25079)"
       height="100%"
       width="100%"
       y="0"
       x="0"
       xlink:href="#path3723"
       id="use3893" />
    <use
       transform="translate(-22.927664,-198.38066)"
       height="100%"
       width="100%"
       y="0"
       x="0"
       xlink:href="#path3723"
       id="use3895" />
    <use
       transform="translate(-15.006912,-180.35223)"
       height="100%"
       width="100%"
       y="0"
       x="0"
       xlink:href="#path3723"
       id="use3897" />
    <use
       transform="translate(-33.623328,-168.05659)"
       height="100%"
       width="100%"
       y="0"
       x="0"
       xlink:href="#path3723"
       id="use3899" />
    <use
       transform="translate(-31.585985,-192.20992)"
       height="100%"
       width="100%"
       y="0"
       x="0"
       xlink:href="#path3723"
       id="use3901" />
    <use
       transform="translate(-47.89856,-195.35745)"
       height="100%"
       width="100%"
       y="0"
       x="0"
       xlink:href="#path3723"
       id="use3903" />
    <use
       transform="translate(-38.674468,-173.62995)"
       height="100%"
       width="100%"
       y="0"
       x="0"
       xlink:href="#path3723"
       id="use3905" />
    <use
       transform="translate(-14.696347,-163.63805)"
       height="100%"
       width="100%"
       y="0"
       x="0"
       xlink:href="#path3723"
       id="use3907" />
    <use
       transform="translate(-27.135982,-183.80092)"
       height="100%"
       width="100%"
       y="0"
       x="0"
       xlink:href="#path3723"
       id="use3909" />
    <use
       transform="translate(-6.0649834,-167.99025)"
       height="100%"
       width="100%"
       y="0"
       x="0"
       xlink:href="#path3723"
       id="use3911" />
    <use
       transform="translate(-6.117042,-149.26438)"
       height="100%"
       width="100%"
       y="0"
       x="0"
       xlink:href="#path3723"
       id="use3913" />
    <use
       transform="translate(-23.911971,-154.48643)"
       height="100%"
       width="100%"
       y="0"
       x="0"
       xlink:href="#path3723"
       id="use3915" />
    <use
       transform="translate(-10.3043,-143.75151)"
       height="100%"
       width="100%"
       y="0"
       x="0"
       xlink:href="#path3723"
       id="use3917" />
    <use
       transform="translate(-11.143879,-128.32395)"
       height="100%"
       width="100%"
       y="0"
       x="0"
       xlink:href="#path3723"
       id="use3919" />
    <use
       transform="translate(9.1246308,-153.86645)"
       height="100%"
       width="100%"
       y="0"
       x="0"
       xlink:href="#path3723"
       id="use3921" />
    <use
       transform="translate(-22.326935,-133.69666)"
       height="100%"
       width="100%"
       y="0"
       x="0"
       xlink:href="#path3723"
       id="use3923" />
    <use
       transform="translate(-10.205982,-145.88786)"
       height="100%"
       width="100%"
       y="0"
       x="0"
       xlink:href="#path3723"
       id="use3925" />
    <use
       transform="translate(9.2706628,-138.98053)"
       height="100%"
       width="100%"
       y="0"
       x="0"
       xlink:href="#path3723"
       id="use3927" />
    <use
       transform="translate(16.369875,-122.99727)"
       height="100%"
       width="100%"
       y="0"
       x="0"
       xlink:href="#path3723"
       id="use3929" />
    <use
       transform="translate(12.514328,-122.36258)"
       height="100%"
       width="100%"
       y="0"
       x="0"
       xlink:href="#path3723"
       id="use3931" />
    <use
       transform="translate(8.1679701,-116.03318)"
       height="100%"
       width="100%"
       y="0"
       x="0"
       xlink:href="#path3723"
       id="use3933" />
    <use
       transform="translate(4.8699031,-103.86859)"
       height="100%"
       width="100%"
       y="0"
       x="0"
       xlink:href="#path3723"
       id="use3935" />
    <use
       transform="translate(21.487559,-127.22809)"
       height="100%"
       width="100%"
       y="0"
       x="0"
       xlink:href="#path3723"
       id="use3937" />
    <use
       transform="translate(5.731268,-119.87377)"
       height="100%"
       width="100%"
       y="0"
       x="0"
       xlink:href="#path3723"
       id="use3939" />
    <use
       transform="translate(15.244178,-94.357925)"
       height="100%"
       width="100%"
       y="0"
       x="0"
       xlink:href="#path3723"
       id="use3941" />
    <use
       transform="translate(39.751097,-116.85441)"
       height="100%"
       width="100%"
       y="0"
       x="0"
       xlink:href="#path3723"
       id="use3943" />
    <use
       transform="translate(13.495688,-125.60018)"
       height="100%"
       width="100%"
       y="0"
       x="0"
       xlink:href="#path3723"
       id="use3945" />
    <use
       transform="translate(45.488986,-116.55502)"
       height="100%"
       width="100%"
       y="0"
       x="0"
       xlink:href="#path3723"
       id="use3947" />
    <use
       transform="translate(21.617945,-90.92988)"
       height="100%"
       width="100%"
       y="0"
       x="0"
       xlink:href="#path3723"
       id="use3949" />
    <use
       transform="translate(23.988902,-96.230991)"
       height="100%"
       width="100%"
       y="0"
       x="0"
       xlink:href="#path3723"
       id="use3951" />
    <use
       transform="translate(9.2369721,-85.519938)"
       height="100%"
       width="100%"
       y="0"
       x="0"
       xlink:href="#path3723"
       id="use3953" />
    <use
       transform="translate(36.599725,-98.550609)"
       height="100%"
       width="100%"
       y="0"
       x="0"
       xlink:href="#path3723"
       id="use3955" />
    <use
       transform="translate(29.56556,-100.33635)"
       height="100%"
       width="100%"
       y="0"
       x="0"
       xlink:href="#path3723"
       id="use3957" />
    <use
       transform="translate(53.785605,-99.604251)"
       height="100%"
       width="100%"
       y="0"
       x="0"
       xlink:href="#path3723"
       id="use3959" />
    <use
       transform="translate(33.2323,-106.22815)"
       height="100%"
       width="100%"
       y="0"
       x="0"
       xlink:href="#path3723"
       id="use3961" />
    <use
       transform="translate(47.846937,-84.063415)"
       height="100%"
       width="100%"
       y="0"
       x="0"
       xlink:href="#path3723"
       id="use3963" />
    <use
       transform="translate(50.0628,-74.796562)"
       height="100%"
       width="100%"
       y="0"
       x="0"
       xlink:href="#path3723"
       id="use3965" />
    <use
       transform="translate(29.314539,-94.381527)"
       height="100%"
       width="100%"
       y="0"
       x="0"
       xlink:href="#path3723"
       id="use3967" />
    <use
       transform="translate(38.259786,-101.08316)"
       height="100%"
       width="100%"
       y="0"
       x="0"
       xlink:href="#path3723"
       id="use3969" />
    <use
       transform="translate(33.927034,-62.691871)"
       height="100%"
       width="100%"
       y="0"
       x="0"
       xlink:href="#path3723"
       id="use3971" />
    <use
       transform="translate(51.676901,-98.412844)"
       height="100%"
       width="100%"
       y="0"
       x="0"
       xlink:href="#path3723"
       id="use3973" />
    <path
       transform="scale(0.26458333)"
       id="path3975"
       d=""
       style="stroke-width:2.85714293;fill:#501616" />
    <path
       transform="scale(0.26458333)"
       id="path3977"
       d=""
       style="fill:#501616;stroke-width:2.85714293" />
    <path
       transform="scale(0.26458333)"
       id="path3979"
       d="m 380.54522,614.00838 c -0.9916,-3.95086 -1.32708,-7.59753 -0.7455,-8.10371 2.88452,-2.51057 67.62104,-38.81356 69.21343,-38.81356 1.0142,0 1.84399,3.79556 1.84399,8.43456 0,7.29609 -2.33455,9.80281 -17.29593,18.57143 -9.51276,5.57528 -18.45618,10.13687 -19.87427,10.13687 -1.41808,0 -9.04944,3.8155 -16.95857,8.47889 l -14.38024,8.4789 z"
       style="fill:#501616;stroke-width:2.85714293" />
    <path
       transform="scale(0.26458333)"
       id="path3981"
       d="m 371.97791,571.16764 c -2.29925,-9.16093 -2.62429,-8.86469 30.87062,-28.13603 19.68417,-11.32532 30.70544,-15.9405 38.06664,-15.9405 17.85049,0 10.8431,7.77189 -27.20088,30.16847 -19.64286,11.5638 -36.65408,21.07797 -37.80271,21.1426 -1.14864,0.0646 -2.91879,-3.19091 -3.93367,-7.23454 z"
       style="fill:#501616;stroke-width:2.85714293" />
    <path
       transform="scale(0.26458333)"
       id="path3983"
       d=""
       style="fill:#501616;stroke-width:2.85714293" />
    <path
       transform="scale(0.26458333)"
       id="path3985"
       d="m 358.34762,458.87864 c -3.64943,-22.06515 -4.54765,-20.98308 37.04968,-44.633 21.35423,-12.14082 39.81943,-20.96729 41.0338,-19.61437 1.21436,1.35291 3.48504,7.72897 5.04596,14.169 l 2.83803,11.70917 -42.12709,24.36407 -42.12708,24.36408 z"
       style="fill:#501616;stroke-width:2.85714293" />
    <path
       transform="scale(0.26458333)"
       id="path3987"
       d=""
       style="fill:#501616;stroke-width:2.85714293" />
    <path
       transform="scale(0.26458333)"
       id="path3989"
       d=""
       style="fill:#501616;stroke-width:2.85714293" />
    <path
       transform="scale(0.26458333)"
       id="path3991"
       d="m 203.71429,517.74796 c -6.28572,-1.59872 -20.17736,-5.43995 -30.87033,-8.53606 -31.64085,-9.16151 -30.43546,-10.35586 66.19808,-65.59212 46.14455,-26.37648 84.50259,-47.95724 85.24008,-47.95724 0.7375,0 -2.45318,4.82143 -7.0904,10.71429 -4.63721,5.89286 -11.10441,15.85714 -14.37155,22.14286 -7.1404,13.73756 -20.51038,26.68128 -36.93106,35.75365 -6.661,3.68017 -11.46804,7.33408 -10.68233,8.11979 0.78572,0.78572 6.55705,-1.45379 12.82518,-4.97668 6.26814,-3.52288 11.39661,-5.78264 11.39661,-5.02166 0,0.76097 -6.94317,11.46296 -15.42926,23.78222 -10.1165,14.68609 -19.35062,24.60256 -26.81759,28.79923 -12.29543,6.91041 -15.99169,7.21653 -33.46743,2.77172 z"
       style="fill:#501616;stroke-width:2.85714293" />
    <path
       transform="scale(0.26458333)"
       id="path3993"
       d="m 163.83473,583.26866 c -3.99482,-6.81663 -7.2633,-13.64584 -7.2633,-15.17601 0,-3.17146 65.60353,-41.00154 71.10336,-41.00154 5.03476,0 3.41709,4.37463 -9.67479,26.16331 -7.03697,11.71156 -14.96519,20.92513 -20.63217,23.97713 -5.06198,2.72617 -8.55566,6.00506 -7.76373,7.28644 1.22753,1.98618 -12.7888,11.14455 -17.05606,11.14455 -0.79751,0 -4.7185,-5.57724 -8.71331,-12.39388 z"
       style="fill:#501616;stroke-width:2.85714293" />
    <path
       transform="scale(0.26458333)"
       id="path3995"
       d="m 152.67613,476.28524 c -0.96585,-5.84249 -1.77025,-20.47486 -1.78754,-32.51639 l -0.0315,-21.8937 113.57143,-65.01212 c 62.46429,-35.75668 115.5347,-66.66572 117.93424,-68.68677 3.70818,-3.12326 5.9589,-1.7064 15,9.44272 5.85046,7.21455 10.63719,13.92871 10.63719,14.92037 0,0.99166 -48.92243,29.89191 -108.71651,64.22278 -59.79408,34.33088 -108.08338,63.05291 -107.30954,63.82674 0.77383,0.77384 17.38492,-7.73231 36.91352,-18.90254 19.5286,-11.17022 36.99133,-20.3095 38.80606,-20.3095 1.81472,0 34.89406,-18.08915 73.50964,-40.19811 38.61557,-22.10897 70.73348,-39.67477 71.37312,-39.03513 3.32478,3.32478 15.1456,43.48585 13.29887,45.18271 -1.18848,1.09203 -18.19853,11.09773 -37.80011,22.23489 -31.73771,18.03263 -35.93752,19.70956 -38.36402,15.31822 -4.48592,-8.11834 -11.28179,-11.82536 -18.85389,-10.28443 -3.92857,0.79946 2.17857,-4.04014 13.57143,-10.75467 11.39286,-6.71453 20.71429,-13.33482 20.71429,-14.71174 0,-1.37693 -4.17857,0.026 -9.28572,3.11769 -11.04794,6.68799 -186.59659,106.85163 -195.35531,111.46483 -5.57708,2.93743 -6.2121,2.33486 -7.8257,-7.42585 z"
       style="fill:#501616;stroke-width:2.85714293" />
    <path
       transform="scale(0.26458333)"
       id="path3997"
       d=""
       style="fill:#501616;stroke-width:2.85714293" />
    <path
       transform="scale(0.26458333)"
       id="path3999"
       d=""
       style="fill:#501616;stroke-width:2.85714293" />
    <path
       transform="scale(0.26458333)"
       id="path4001"
       d="m 122.28571,494.42505 c -18.44341,-6.80931 -64.176153,-30.82576 -75.086001,-39.43126 -14.148386,-11.16 -19.294404,-21.70112 -19.790007,-40.53791 -0.487433,-18.52626 -0.451605,-18.58501 38.777715,-63.59461 23.240849,-26.66529 35.998403,-38.57158 54.569823,-50.92858 13.33081,-8.87001 25.47098,-15.36516 26.97817,-14.43367 1.50718,0.93149 10.86186,-2.73767 20.78818,-8.15369 21.86258,-11.92871 49.59874,-19.42021 67.59466,-18.25724 l 13.31032,0.86017 -89.32171,51.15448 c -49.12694,28.13496 -88.708734,51.76745 -87.959543,52.51664 0.749192,0.74919 24.30096,-11.66318 52.337263,-27.58305 28.03631,-15.91987 52.36408,-28.94522 54.06172,-28.94522 3.69699,0 45.71301,-21.60888 72.98041,-37.5339 10.74356,-6.27458 22.18806,-11.00346 25.43224,-10.50864 3.91142,0.5966 -17.77025,14.3749 -64.36015,40.89969 -38.64226,22 -70.2709,41.04016 -70.28587,42.31147 -0.0149,1.27132 0.93707,1.75289 2.11564,1.07018 1.17857,-0.68272 35.12999,-20.07518 75.4476,-43.09435 l 73.30475,-41.85303 28.12382,5.89362 c 15.46812,3.2415 30.32817,6.80807 33.0224,7.92572 3.5752,1.48313 -14.94931,13.4359 -68.57144,44.24505 -70.36423,40.4285 -95.85958,57.38927 -89.61346,59.61531 4.84689,1.72737 -3.08897,9.90552 -18.26347,18.82107 -7.79046,4.57717 -14.16448,9.88617 -14.16448,11.79776 0,3.34366 -6.48055,8.84714 -10.52451,8.93773 -1.07419,0.0241 -2.55315,-3.49196 -3.28658,-7.81339 -0.73342,-4.32143 -1.17255,12.36113 -0.97585,37.07235 0.33136,41.62508 -0.0573,45.2432 -5.28484,49.19485 -6.74776,5.10085 -8.42068,5.12846 -21.3568,0.35245 z"
       style="fill:#501616;stroke-width:2.85714293" />
    <path
       transform="scale(0.26458333)"
       id="path4003"
       d=""
       style="fill:#501616;stroke-width:2.85714293" />
    <path
       transform="scale(0.26458333)"
       id="path4005"
       d=""
       style="fill:#501616;stroke-width:2.85714293" />
    <path
       transform="scale(0.26458333)"
       id="path4007"
       d="m 395.44854,648.28601 c -0.95384,-2.48567 -1.73425,-4.76472 -1.73425,-5.06456 0,-0.29984 4.5,-2.96858 10,-5.93053 9.84852,-5.30378 13.09619,-10.19981 6.76581,-10.19981 -1.77881,0 -7.41182,2.58192 -12.51782,5.7376 l -9.28362,5.7376 -1.64833,-6.30321 c -1.77753,-6.79729 2.32078,-13.74341 8.1088,-13.74341 1.97026,0 14.9914,-6.31112 28.93587,-14.02471 13.94446,-7.71359 25.6789,-13.70969 26.07653,-13.32467 0.39763,0.38503 -0.94109,8.92174 -2.97492,18.97046 l -3.69789,18.27041 -19.88221,11.98744 c -22.25352,13.41714 -25.65974,14.37161 -28.14797,7.88739 z"
       style="fill:#501616;stroke-width:2.85714293" />
    <path
       transform="scale(0.26458333)"
       id="path4009"
       d="m 365.14286,510.19416 c 0,-3.76109 5.80585,-8.7152 18.59588,-15.86779 10.22773,-5.71968 19.59755,-9.78034 20.82182,-9.0237 1.22427,0.75663 13.05773,-4.86714 26.29658,-12.49727 13.23885,-7.63014 25.2067,-13.17085 26.59521,-12.3127 1.38852,0.85815 0.79405,3.18831 -1.32103,5.17814 -4.18945,3.94135 -86.39567,49.9917 -89.24209,49.9917 -0.9605,0 -1.74637,-2.46077 -1.74637,-5.46838 z"
       style="fill:#501616;stroke-width:2.85714293" />
    <path
       transform="scale(0.26458333)"
       id="path4011"
       d=""
       style="fill:#501616;stroke-width:2.85714293" />
    <path
       transform="scale(0.26458333)"
       id="path4013"
       d=""
       style="fill:#501616;stroke-width:2.85714293" />
    <path
       transform="scale(0.26458333)"
       id="path4015"
       d=""
       style="fill:#501616;stroke-width:2.85714293" />
    <path
       transform="scale(0.26458333)"
       id="path4017"
       d=""
       style="fill:#501616;stroke-width:2.85714293" />
    <path
       transform="scale(0.26458333)"
       id="path4019"
       d=""
       style="fill:#501616;stroke-width:2.85714293" />
    <path
       transform="scale(0.26458333)"
       id="path4021"
       d=""
       style="fill:#501616;stroke-width:2.85714293" />
    <path
       transform="scale(0.26458333)"
       id="path4023"
       d=""
       style="fill:#501616;stroke-width:2.85714293" />
    <path
       transform="scale(0.26458333)"
       id="path4025"
       d=""
       style="fill:#501616;stroke-width:2.85714293" />
  </g>
</svg>
